<?xml version="1.0" encoding="UTF-8" standalone="no"?>
<svg
   version="1.1"
   width="24"
   height="30"
   viewBox="0 0 24 30"
   id="svg19"
   sodipodi:docname="evolve.svg"
   xml:space="preserve"
   inkscape:version="1.2 (dc2aedaf03, 2022-05-15)"
   xmlns:inkscape="http://www.inkscape.org/namespaces/inkscape"
   xmlns:sodipodi="http://sodipodi.sourceforge.net/DTD/sodipodi-0.dtd"
   xmlns:xlink="http://www.w3.org/1999/xlink"
   xmlns="http://www.w3.org/2000/svg"
   xmlns:svg="http://www.w3.org/2000/svg"><defs
     id="defs23"><marker
       style="overflow:visible"
       id="TriangleStart"
       refX="0"
       refY="0"
       orient="auto-start-reverse"
       inkscape:stockid="TriangleStart"
       markerWidth="3.3239999"
       markerHeight="3.8427744"
       viewBox="0 0 5.3244081 6.1553851"
       inkscape:isstock="true"
       inkscape:collect="always"
       preserveAspectRatio="xMidYMid"><path
         transform="scale(0.5)"
         style="fill:context-stroke;fill-rule:evenodd;stroke:context-stroke;stroke-width:1pt"
         d="M 5.77,0 -2.88,5 V -5 Z"
         id="path135" /></marker><linearGradient
       inkscape:collect="always"
       id="linearGradient33005"><stop
         style="stop-color:#000000;stop-opacity:1;"
         offset="0"
         id="stop33001" /><stop
         style="stop-color:#800080;stop-opacity:1;"
         offset="1"
         id="stop33003" /></linearGradient><inkscape:path-effect
       effect="powerclip"
       id="path-effect9565"
       is_visible="true"
       lpeversion="1"
       inverse="true"
       flatten="false"
       hide_clip="false"
       message="Use fill-rule evenodd on &lt;b&gt;fill and stroke&lt;/b&gt; dialog if no flatten result after convert clip to paths." /><inkscape:path-effect
       effect="powerclip"
       id="path-effect9555"
       is_visible="true"
       lpeversion="1"
       inverse="true"
       flatten="false"
       hide_clip="false"
       message="Use fill-rule evenodd on &lt;b&gt;fill and stroke&lt;/b&gt; dialog if no flatten result after convert clip to paths." /><inkscape:path-effect
       effect="powermask"
       id="path-effect24761"
       is_visible="true"
       lpeversion="1"
       uri="#mask-powermask-path-effect24761"
       invert="false"
       hide_mask="false"
       background="true"
       background_color="#ffffffff" /><inkscape:path-effect
       effect="powerclip"
       id="path-effect18984"
       is_visible="true"
       lpeversion="1"
       inverse="true"
       flatten="false"
       hide_clip="false"
       message="Use fill-rule evenodd on &lt;b&gt;fill and stroke&lt;/b&gt; dialog if no flatten result after convert clip to paths." /><inkscape:path-effect
       effect="powerclip"
       id="path-effect18974"
       is_visible="true"
       lpeversion="1"
       inverse="true"
       flatten="false"
       hide_clip="false"
       message="Use fill-rule evenodd on &lt;b&gt;fill and stroke&lt;/b&gt; dialog if no flatten result after convert clip to paths." /><inkscape:path-effect
       effect="powerclip"
       id="path-effect18964"
       is_visible="true"
       lpeversion="1"
       inverse="true"
       flatten="false"
       hide_clip="false"
       message="Use fill-rule evenodd on &lt;b&gt;fill and stroke&lt;/b&gt; dialog if no flatten result after convert clip to paths." /><inkscape:path-effect
       effect="powerclip"
       id="path-effect16364"
       is_visible="true"
       lpeversion="1"
       inverse="true"
       flatten="false"
       hide_clip="false"
       message="Use fill-rule evenodd on &lt;b&gt;fill and stroke&lt;/b&gt; dialog if no flatten result after convert clip to paths." /><inkscape:perspective
       sodipodi:type="inkscape:persp3d"
       inkscape:vp_x="0 : 18 : 1"
       inkscape:vp_y="0 : 1000 : 0"
       inkscape:vp_z="24 : 18 : 1"
       inkscape:persp3d-origin="12 : 14 : 1"
       id="perspective461" /><mask
       maskUnits="userSpaceOnUse"
       id="mask605"><rect
         style="fill:#241c1c"
         id="rect607"
         width="7.8265395"
         height="12.863833"
         x="5.8074589"
         y="4.0381613" /></mask><mask
       maskUnits="userSpaceOnUse"
       id="mask3350"><rect
         style="fill:none;fill-opacity:1;stroke:#000000;stroke-width:0.2;stroke-dasharray:none;stroke-opacity:1"
         id="rect3352"
         width="3.7259324"
         height="10.220295"
         x="13.654814"
         y="13.280139"
         rx="0.5"
         ry="0.5" /></mask><mask
       maskUnits="userSpaceOnUse"
       id="mask3384"><rect
         style="fill:none;fill-opacity:1;stroke:#000000;stroke-width:0.2;stroke-dasharray:none;stroke-opacity:1"
         id="rect3386"
         width="3.8716393"
         height="10.324371"
         x="13.196877"
         y="13.051171"
         rx="2.7755576e-17"
         ry="2.7755576e-17" /></mask><mask
       maskUnits="userSpaceOnUse"
       id="mask4242"><rect
         style="fill:#241c1c;fill-opacity:1;stroke:#cb0d0d;stroke-width:0;stroke-dasharray:none;stroke-opacity:1"
         id="rect4244"
         width="3.7259324"
         height="10.220295"
         x="12.718126"
         y="13.196877"
         rx="2.7755576e-17"
         ry="2.7755576e-17" /></mask><clipPath
       clipPathUnits="userSpaceOnUse"
       id="clipPath4322"><rect
         style="fill:#241c1c;fill-opacity:1;stroke:#a0a0a0;stroke-width:0;stroke-dasharray:none;stroke-opacity:1"
         id="rect4324"
         width="3.3096271"
         height="9.8248053"
         x="12.843019"
         y="13.092801"
         rx="2.7755576e-17"
         ry="2.7755576e-17" /></clipPath><clipPath
       clipPathUnits="userSpaceOnUse"
       id="clipPath4322-9"><rect
         style="fill:#241c1c;fill-opacity:1;stroke:#a0a0a0;stroke-width:0;stroke-dasharray:none;stroke-opacity:1"
         id="rect4324-4"
         width="3.3096271"
         height="9.8248053"
         x="12.843019"
         y="13.092801"
         rx="2.7755576e-17"
         ry="2.7755576e-17" /></clipPath><clipPath
       clipPathUnits="userSpaceOnUse"
       id="clipPath14576"><rect
         style="fill:none;fill-opacity:1;stroke:#000000;stroke-width:0.270765;stroke-dasharray:none;stroke-opacity:1"
         id="rect14578"
         width="7.8182201"
         height="4.5040832"
         x="6.4672995"
         y="-17.520039"
         transform="scale(1,-1)" /></clipPath><clipPath
       clipPathUnits="userSpaceOnUse"
       id="clipPath16354"><rect
         style="display:block;fill:#cf3b0a;fill-opacity:1;stroke:#000000;stroke-width:0.2;stroke-dasharray:none;stroke-opacity:1"
         id="rect16356"
         width="1.18647"
         height="1.0615785"
         x="10.449263"
         y="11.927147"
         rx="2.7755576e-17"
         ry="2.7755576e-17" /></clipPath><clipPath
       clipPathUnits="userSpaceOnUse"
       id="clipPath18960"><rect
         style="display:none;fill:#241c1c;fill-opacity:1;stroke:none;stroke-width:0.193729;stroke-dasharray:0.193729, 0.193729;stroke-dashoffset:0;stroke-opacity:1"
         id="rect18962"
         width="1.5819602"
         height="1.2072853"
         x="10.324371"
         y="13.717259"
         d="m 10.324371,13.717259 h 1.581961 v 1.207286 h -1.581961 z" /></clipPath><clipPath
       clipPathUnits="userSpaceOnUse"
       id="clipPath18970"><rect
         style="display:none;fill:#241c1c;fill-opacity:1;stroke:none;stroke-width:0.2;stroke-dasharray:0.2, 0.2;stroke-dashoffset:0;stroke-opacity:1"
         id="rect18972"
         width="0.81179529"
         height="0.89505637"
         x="9.9288816"
         y="13.821336"
         d="m 9.9288816,13.821336 h 0.8117954 v 0.895056 H 9.9288816 Z" /></clipPath><clipPath
       clipPathUnits="userSpaceOnUse"
       id="clipPath18980"><rect
         style="display:block;fill:#241c1c;fill-opacity:1;stroke:none;stroke-width:0.153685;stroke-dasharray:0.153685, 0.153685;stroke-dashoffset:0;stroke-opacity:1"
         id="rect18982"
         width="1.2905463"
         height="1.1656548"
         x="10.428448"
         y="13.654814" /></clipPath><mask
       maskUnits="userSpaceOnUse"
       id="mask-powermask-path-effect24761"><rect
         style="fill:#241c1c;fill-opacity:1;stroke:#000000;stroke-width:0.457669;stroke-dasharray:none;stroke-dashoffset:0;stroke-opacity:1"
         id="rect24747"
         width="1.0328764"
         height="9.8585491"
         x="10.494837"
         y="14.116693" /></mask><clipPath
       clipPathUnits="userSpaceOnUse"
       id="clipPath9551"><rect
         style="display:block;fill:none;stroke:#000000;stroke-width:0.2;stroke-opacity:1"
         id="rect9553"
         width="15.101298"
         height="2.296104"
         x="-0.23549783"
         y="0.82424241" /></clipPath><clipPath
       clipPathUnits="userSpaceOnUse"
       id="clipPath9561"><rect
         style="display:block;fill:none;stroke:#000000;stroke-width:0.2;stroke-opacity:1"
         id="rect9563"
         width="15.395671"
         height="1.4718615"
         x="-0.13246737"
         y="3.1532454" /></clipPath><radialGradient
       inkscape:collect="always"
       xlink:href="#linearGradient33005"
       id="radialGradient33007"
       cx="12.000007"
       cy="10.2949"
       fx="12.000007"
       fy="10.2949"
       r="1.1979805"
       gradientTransform="matrix(1,0,0,1.1111124,-0.2136956,1.1477344)"
       gradientUnits="userSpaceOnUse" /><marker
       style="overflow:visible"
       id="TriangleStart-0"
       refX="0"
       refY="0"
       orient="auto-start-reverse"
       inkscape:stockid="TriangleStart"
       markerWidth="3.3239999"
       markerHeight="3.8427744"
       viewBox="0 0 5.3244081 6.1553851"
       inkscape:isstock="true"
       inkscape:collect="always"
       preserveAspectRatio="xMidYMid"><path
         transform="scale(0.5)"
         style="fill:context-stroke;fill-rule:evenodd;stroke:context-stroke;stroke-width:1pt"
         d="M 5.77,0 -2.88,5 V -5 Z"
         id="path135-8" /></marker></defs><sodipodi:namedview
     id="namedview21"
     pagecolor="#ffffff"
     bordercolor="#000000"
     borderopacity="0.25"
     inkscape:showpageshadow="2"
     inkscape:pageopacity="0.0"
     inkscape:pagecheckerboard="0"
     inkscape:deskcolor="#d1d1d1"
     showgrid="true"
     inkscape:lockguides="true"
     showguides="true"
     inkscape:zoom="37.794295"
     inkscape:cx="10.491001"
     inkscape:cy="18.931429"
     inkscape:window-width="1694"
     inkscape:window-height="1356"
     inkscape:window-x="1706"
     inkscape:window-y="5"
     inkscape:window-maximized="0"
     inkscape:current-layer="svg19"><inkscape:grid
       type="xygrid"
       id="grid4689"
       spacingx="0.25"
       spacingy="0.25"
       originx="0"
       originy="0"
       dotted="false"
       snapvisiblegridlinesonly="true" /><sodipodi:guide
       position="0,28"
       orientation="0,24"
       inkscape:locked="true"
       id="guide23044" /><sodipodi:guide
       position="24,28"
       orientation="28,0"
       inkscape:locked="true"
       id="guide23046" /><sodipodi:guide
       position="24,0"
       orientation="0,-24"
       inkscape:locked="true"
       id="guide23048" /><sodipodi:guide
       position="0,0"
       orientation="-28,0"
       inkscape:locked="true"
       id="guide23050" /><sodipodi:guide
       position="7.4514657,15.490897"
       orientation="0,-1"
       id="guide23910"
       inkscape:locked="true" /></sodipodi:namedview><path
     d="m 7.5499298,5.4004941 c 0,0.1032332 -0.057048,0.192903 -0.1440189,0.2391208 L 5.2594072,6.8459896 c -0.043486,0.03259 -0.097801,0.048917 -0.1548821,0.048917 -0.057048,0 -0.1113966,-0.016459 -0.1548821,-0.048917 L 2.8031689,5.6395983 C 2.7162308,5.5934135 2.65915,5.5037432 2.65915,5.4004776 V 2.9551128 c 0,-0.1032491 0.057048,-0.192913 0.1440189,-0.2391043 L 4.9496694,1.5096202 c 0.043486,-0.03259 0.097801,-0.048908 0.1548821,-0.048908 0.057047,0 0.1113966,0.016295 0.154882,0.048908 l 2.1465038,1.2063886 c 0.086938,0.046192 0.1440189,0.1358551 0.1440189,0.2391043 v 2.445381 M 5.1045449,2.0448873 3.48516,2.9551128 5.1045449,3.8653385 6.7239328,2.9551128 5.1045449,2.0448873 M 3.2025834,5.2401866 4.832838,6.1585634 v -1.823168 l -1.6302546,-0.91566 v 1.8204512 m 3.803926,0 V 3.4197355 L 5.376255,4.3353954 v 1.8231681 z"
     id="path8176-9-0"
     style="fill:#000000;fill-opacity:1;stroke-width:0.27171" /><path
     d="m 21.135691,5.4004938 c 0,0.1032321 -0.05705,0.1929035 -0.144019,0.2391213 l -2.146504,1.2063745 c -0.04349,0.03259 -0.0978,0.048919 -0.154881,0.048919 -0.05705,0 -0.111397,-0.016455 -0.154882,-0.048919 L 16.38893,5.639598 C 16.301993,5.5934134 16.244911,5.5037429 16.244911,5.4004778 v -2.445365 c 0,-0.1032491 0.05705,-0.192913 0.144019,-0.2391043 l 2.146501,-1.2063883 c 0.04349,-0.03259 0.0978,-0.048908 0.154882,-0.048908 0.05705,0 0.111397,0.016295 0.154882,0.048908 l 2.146503,1.2063886 c 0.08694,0.046192 0.144019,0.1358551 0.144019,0.2391043 V 5.4004938 M 18.690306,2.0448873 17.070921,2.9551128 18.690306,3.8653385 20.309693,2.9551128 18.690306,2.0448873 m -1.901962,3.1952999 1.630255,0.9183761 V 4.3353954 l -1.630255,-0.91566 v 1.8204518 m 3.803927,0 V 3.4197355 l -1.630255,0.9156599 v 1.823168 z"
     id="path8176-9-0-6"
     style="fill:#800080;fill-opacity:1;stroke-width:0.27171" /><path
     d="m 12.984277,13.185512 c 0,0.05059 -0.02795,0.0945 -0.07055,0.117144 l -1.051555,0.591 c -0.0213,0.01596 -0.04791,0.02396 -0.07588,0.02396 -0.02795,0 -0.05457,-0.0079 -0.07587,-0.02396 l -1.051541,-0.591 c -0.04259,-0.02263 -0.07055,-0.06655 -0.07055,-0.117144 v -1.197975 c 0,-0.05057 0.02795,-0.0945 0.07055,-0.117143 l 1.051556,-0.591 c 0.0213,-0.01596 0.04791,-0.02396 0.07588,-0.02396 0.02795,0 0.05457,0.0079 0.07587,0.02396 l 1.051555,0.591 c 0.04259,0.02263 0.07055,0.06655 0.07055,0.117143 v 1.197975 m -1.197988,-1.643887 -0.793324,0.445912 0.793324,0.445913 0.793325,-0.445913 -0.793325,-0.445912 m -0.931756,1.565354 0.798649,0.449906 v -0.893157 l -0.798649,-0.448575 v 0.891826 m 1.863513,0 v -0.891826 l -0.798649,0.448575 v 0.893157 z"
     id="path8176-1-6-1"
     style="fill:url(#radialGradient33007);fill-opacity:1;stroke-width:0.133109" /><text
     xml:space="preserve"
     style="font-style:normal;font-variant:normal;font-weight:bold;font-stretch:normal;font-size:1.33337px;font-family:Verdana;-inkscape-font-specification:'Verdana Bold';fill:#000000;fill-opacity:1;stroke:#800080;stroke-width:0;stroke-dasharray:none;stroke-opacity:1"
     x="8.7746572"
     y="15.571764"
     id="text33011"><tspan
       sodipodi:role="line"
       id="tspan33009"
       x="8.7746572"
       y="15.571764"
       style="font-size:1.33337px">Blocklet</tspan></text><text
     xml:space="preserve"
     style="font-style:normal;font-variant:normal;font-weight:bold;font-stretch:normal;font-size:1.33337px;font-family:Verdana;-inkscape-font-specification:'Verdana Bold';fill:#000000;fill-opacity:1;stroke:#800080;stroke-width:0;stroke-dasharray:none;stroke-opacity:1"
     x="7.5615134"
     y="28.013048"
     id="text33011-1"><tspan
       sodipodi:role="line"
       id="tspan33009-4"
       x="7.5615134"
       y="28.013048"
       style="font-size:1.33337px">NFT Trophy</tspan></text><path
     d="m 10.228988,4.4811054 h 0.406668 v 0.4421135 c 0,0.3183214 0.138266,0.5769573 0.382267,0.835594 0.174866,0.1834772 0.408701,0.3603222 0.6527,0.5349571 l -0.3721,0.2630575 C 11.097222,6.4087195 10.902022,6.2495585 10.737322,6.0749242 10.446555,5.7676552 10.228988,5.3874375 10.228988,4.9232189 V 4.4811054 m 2.84667,0 h 0.406667 v 0.4421135 c 0,0.4642186 -0.217567,0.8444363 -0.508333,1.1517053 -0.286701,0.3050582 -0.652701,0.5570627 -1.008535,0.8024354 -0.355834,0.2475836 -0.7015,0.4885356 -0.947534,0.7471711 -0.244001,0.2586366 -0.382267,0.5172725 -0.382267,0.8355939 V 8.902239 H 10.228988 V 8.4601246 c 0,-0.4642186 0.217567,-0.8444362 0.508334,-1.1517042 0.286701,-0.3050582 0.652701,-0.5570633 1.008534,-0.8024361 0.355834,-0.2475836 0.701501,-0.4885349 0.947535,-0.7471714 0.244001,-0.2586367 0.382267,-0.5172725 0.382267,-0.835594 V 4.4811054 m -0.662867,2.3454111 c 0.2013,0.148108 0.3965,0.307269 0.561201,0.4819039 0.290766,0.307268 0.508333,0.6874856 0.508333,1.1517042 V 8.902239 H 13.075658 V 8.4601246 c 0,-0.3183214 -0.138266,-0.5769573 -0.382267,-0.8355939 C 12.518524,7.4410538 12.284691,7.2642088 12.04069,7.0895739 L 12.412791,6.8265165 M 10.838989,4.7021624 h 2.033336 v 0.2210565 l -0.0122,0.110528 h -2.008936 l -0.0122,-0.110528 V 4.7021624 m 0.138267,0.6631697 h 1.756801 c -0.0488,0.075159 -0.105732,0.1525288 -0.182999,0.2343197 l -0.103701,0.097265 h -1.187469 l -0.09963,-0.097265 c -0.07727,-0.081791 -0.1342,-0.1591604 -0.183,-0.2343197 m 0.2867,2.3210949 h 1.187468 l 0.09963,0.097265 c 0.07727,0.081791 0.1342,0.1591603 0.183,0.2343197 h -1.756802 c 0.0488,-0.075159 0.105733,-0.1525288 0.183,-0.2343197 l 0.103701,-0.097265 m -0.412768,0.6631697 h 2.008936 l 0.0122,0.1105279 V 8.6811819 H 10.83899 V 8.4601246 Z"
     id="path34160"
     style="fill:#aaaaaa;fill-opacity:1;stroke-width:0.21201" /><path
     d="m 13.75,19.620311 c -0.287969,0 -0.639931,0.319965 -0.639931,0.639931 h -2.559724 c 0,-0.319966 -0.351962,-0.639931 -0.639931,-0.639931 H 8.630552 V 22.5 c 0,0.319965 0.319966,0.639931 0.639931,0.639931 h 0.703924 c 0.127987,0.639931 0.543942,1.183872 1.535835,1.279862 v 0.665528 c -0.959897,0.147184 -0.959897,0.934299 -0.959897,0.934299 h 2.559724 c 0,0 0,-0.787115 -0.959897,-0.934299 v -0.665528 c 0.991893,-0.09599 1.407848,-0.639931 1.535835,-1.279862 h 0.703924 c 0.319965,0 0.639931,-0.319966 0.639931,-0.639931 V 19.620311 H 13.75 M 9.910414,22.5 H 9.270483 V 20.260242 H 9.910414 V 22.5 m 4.479517,0 H 13.75 v -2.239758 h 0.639931 z"
     id="path37862"
     style="stroke-width:0.319965;fill:#800080;fill-opacity:1" /><path
     style="fill:#aaaaaa;fill-opacity:1;stroke:#000000;stroke-width:0.2;stroke-dasharray:none;stroke-opacity:1;marker-end:url(#TriangleStart)"
     d="m 5.75,7.25 4,4"
     id="path38288" /><path
     style="fill:#aaaaaa;fill-opacity:1;stroke:#800080;stroke-width:0.2;stroke-dasharray:none;stroke-opacity:1;marker-end:url(#TriangleStart-0)"
     d="m 17.947082,7.2499998 -4,4.0000002"
     id="path38288-6" /></svg>
