<?xml version="1.0" encoding="UTF-8" standalone="no"?>
<svg
   version="1.1"
   width="24"
   height="28"
   viewBox="0 0 24 28"
   id="svg19"
   sodipodi:docname="minting.svg"
   xml:space="preserve"
   inkscape:version="1.2 (dc2aedaf03, 2022-05-15)"
   xmlns:inkscape="http://www.inkscape.org/namespaces/inkscape"
   xmlns:sodipodi="http://sodipodi.sourceforge.net/DTD/sodipodi-0.dtd"
   xmlns="http://www.w3.org/2000/svg"
   xmlns:svg="http://www.w3.org/2000/svg"><defs
     id="defs23"><marker
       style="overflow:visible"
       id="marker11559"
       refX="0"
       refY="0"
       orient="auto-start-reverse"
       inkscape:stockid="TriangleStart"
       markerWidth="2.3239999"
       markerHeight="2.6867051"
       viewBox="0 0 5.3244081 6.1553851"
       inkscape:isstock="true"
       inkscape:collect="always"
       preserveAspectRatio="xMidYMid"><path
         transform="scale(0.5)"
         style="fill:context-stroke;fill-rule:evenodd;stroke:context-stroke;stroke-width:1pt"
         d="M 5.77,0 -2.88,5 V -5 Z"
         id="path11557" /></marker><marker
       style="overflow:visible"
       id="TriangleStart"
       refX="0"
       refY="0"
       orient="auto-start-reverse"
       inkscape:stockid="TriangleStart"
       markerWidth="2.3239999"
       markerHeight="2.6867051"
       viewBox="0 0 5.3244081 6.1553851"
       inkscape:isstock="true"
       inkscape:collect="always"
       preserveAspectRatio="xMidYMid"><path
         transform="scale(0.5)"
         style="fill:context-stroke;fill-rule:evenodd;stroke:context-stroke;stroke-width:1pt"
         d="M 5.77,0 -2.88,5 V -5 Z"
         id="path135" /></marker><inkscape:path-effect
       effect="powerclip"
       id="path-effect9565"
       is_visible="true"
       lpeversion="1"
       inverse="true"
       flatten="false"
       hide_clip="false"
       message="Use fill-rule evenodd on &lt;b&gt;fill and stroke&lt;/b&gt; dialog if no flatten result after convert clip to paths." /><inkscape:path-effect
       effect="powerclip"
       id="path-effect9555"
       is_visible="true"
       lpeversion="1"
       inverse="true"
       flatten="false"
       hide_clip="false"
       message="Use fill-rule evenodd on &lt;b&gt;fill and stroke&lt;/b&gt; dialog if no flatten result after convert clip to paths." /><inkscape:path-effect
       effect="powermask"
       id="path-effect24761"
       is_visible="true"
       lpeversion="1"
       uri="#mask-powermask-path-effect24761"
       invert="false"
       hide_mask="false"
       background="true"
       background_color="#ffffffff" /><inkscape:path-effect
       effect="powerclip"
       id="path-effect18984"
       is_visible="true"
       lpeversion="1"
       inverse="true"
       flatten="false"
       hide_clip="false"
       message="Use fill-rule evenodd on &lt;b&gt;fill and stroke&lt;/b&gt; dialog if no flatten result after convert clip to paths." /><inkscape:path-effect
       effect="powerclip"
       id="path-effect18974"
       is_visible="true"
       lpeversion="1"
       inverse="true"
       flatten="false"
       hide_clip="false"
       message="Use fill-rule evenodd on &lt;b&gt;fill and stroke&lt;/b&gt; dialog if no flatten result after convert clip to paths." /><inkscape:path-effect
       effect="powerclip"
       id="path-effect18964"
       is_visible="true"
       lpeversion="1"
       inverse="true"
       flatten="false"
       hide_clip="false"
       message="Use fill-rule evenodd on &lt;b&gt;fill and stroke&lt;/b&gt; dialog if no flatten result after convert clip to paths." /><inkscape:path-effect
       effect="powerclip"
       id="path-effect16364"
       is_visible="true"
       lpeversion="1"
       inverse="true"
       flatten="false"
       hide_clip="false"
       message="Use fill-rule evenodd on &lt;b&gt;fill and stroke&lt;/b&gt; dialog if no flatten result after convert clip to paths." /><inkscape:perspective
       sodipodi:type="inkscape:persp3d"
       inkscape:vp_x="0 : 16 : 1"
       inkscape:vp_y="0 : 1000 : 0"
       inkscape:vp_z="24 : 16 : 1"
       inkscape:persp3d-origin="12 : 12 : 1"
       id="perspective461" /><mask
       maskUnits="userSpaceOnUse"
       id="mask605"><rect
         style="fill:#241c1c"
         id="rect607"
         width="7.8265395"
         height="12.863833"
         x="5.8074589"
         y="4.0381613" /></mask><mask
       maskUnits="userSpaceOnUse"
       id="mask3350"><rect
         style="fill:none;fill-opacity:1;stroke:#000000;stroke-width:0.2;stroke-dasharray:none;stroke-opacity:1"
         id="rect3352"
         width="3.7259324"
         height="10.220295"
         x="13.654814"
         y="13.280139"
         rx="0.5"
         ry="0.5" /></mask><mask
       maskUnits="userSpaceOnUse"
       id="mask3384"><rect
         style="fill:none;fill-opacity:1;stroke:#000000;stroke-width:0.2;stroke-dasharray:none;stroke-opacity:1"
         id="rect3386"
         width="3.8716393"
         height="10.324371"
         x="13.196877"
         y="13.051171"
         rx="2.7755576e-17"
         ry="2.7755576e-17" /></mask><mask
       maskUnits="userSpaceOnUse"
       id="mask4242"><rect
         style="fill:#241c1c;fill-opacity:1;stroke:#cb0d0d;stroke-width:0;stroke-dasharray:none;stroke-opacity:1"
         id="rect4244"
         width="3.7259324"
         height="10.220295"
         x="12.718126"
         y="13.196877"
         rx="2.7755576e-17"
         ry="2.7755576e-17" /></mask><clipPath
       clipPathUnits="userSpaceOnUse"
       id="clipPath4322"><rect
         style="fill:#241c1c;fill-opacity:1;stroke:#a0a0a0;stroke-width:0;stroke-dasharray:none;stroke-opacity:1"
         id="rect4324"
         width="3.3096271"
         height="9.8248053"
         x="12.843019"
         y="13.092801"
         rx="2.7755576e-17"
         ry="2.7755576e-17" /></clipPath><clipPath
       clipPathUnits="userSpaceOnUse"
       id="clipPath4322-9"><rect
         style="fill:#241c1c;fill-opacity:1;stroke:#a0a0a0;stroke-width:0;stroke-dasharray:none;stroke-opacity:1"
         id="rect4324-4"
         width="3.3096271"
         height="9.8248053"
         x="12.843019"
         y="13.092801"
         rx="2.7755576e-17"
         ry="2.7755576e-17" /></clipPath><clipPath
       clipPathUnits="userSpaceOnUse"
       id="clipPath14576"><rect
         style="fill:none;fill-opacity:1;stroke:#000000;stroke-width:0.270765;stroke-dasharray:none;stroke-opacity:1"
         id="rect14578"
         width="7.8182201"
         height="4.5040832"
         x="6.4672995"
         y="-17.520039"
         transform="scale(1,-1)" /></clipPath><clipPath
       clipPathUnits="userSpaceOnUse"
       id="clipPath16354"><rect
         style="display:block;fill:#cf3b0a;fill-opacity:1;stroke:#000000;stroke-width:0.2;stroke-dasharray:none;stroke-opacity:1"
         id="rect16356"
         width="1.18647"
         height="1.0615785"
         x="10.449263"
         y="11.927147"
         rx="2.7755576e-17"
         ry="2.7755576e-17" /></clipPath><clipPath
       clipPathUnits="userSpaceOnUse"
       id="clipPath18960"><rect
         style="display:none;fill:#241c1c;fill-opacity:1;stroke:none;stroke-width:0.193729;stroke-dasharray:0.193729, 0.193729;stroke-dashoffset:0;stroke-opacity:1"
         id="rect18962"
         width="1.5819602"
         height="1.2072853"
         x="10.324371"
         y="13.717259"
         d="m 10.324371,13.717259 h 1.581961 v 1.207286 h -1.581961 z" /></clipPath><clipPath
       clipPathUnits="userSpaceOnUse"
       id="clipPath18970"><rect
         style="display:none;fill:#241c1c;fill-opacity:1;stroke:none;stroke-width:0.2;stroke-dasharray:0.2, 0.2;stroke-dashoffset:0;stroke-opacity:1"
         id="rect18972"
         width="0.81179529"
         height="0.89505637"
         x="9.9288816"
         y="13.821336"
         d="m 9.9288816,13.821336 h 0.8117954 v 0.895056 H 9.9288816 Z" /></clipPath><clipPath
       clipPathUnits="userSpaceOnUse"
       id="clipPath18980"><rect
         style="display:block;fill:#241c1c;fill-opacity:1;stroke:none;stroke-width:0.153685;stroke-dasharray:0.153685, 0.153685;stroke-dashoffset:0;stroke-opacity:1"
         id="rect18982"
         width="1.2905463"
         height="1.1656548"
         x="10.428448"
         y="13.654814" /></clipPath><mask
       maskUnits="userSpaceOnUse"
       id="mask-powermask-path-effect24761"><rect
         style="fill:#241c1c;fill-opacity:1;stroke:#000000;stroke-width:0.457669;stroke-dasharray:none;stroke-dashoffset:0;stroke-opacity:1"
         id="rect24747"
         width="1.0328764"
         height="9.8585491"
         x="10.494837"
         y="14.116693" /></mask><clipPath
       clipPathUnits="userSpaceOnUse"
       id="clipPath9551"><rect
         style="display:none;fill:none;stroke:#000000;stroke-width:0.2;stroke-opacity:1"
         id="rect9553"
         width="15.101298"
         height="2.296104"
         x="-0.23549783"
         y="0.82424241" /><path
         id="lpe_path-effect9555"
         style="fill:none;stroke:#000000;stroke-width:0.2;stroke-opacity:1"
         class="powerclip"
         d="M -4.0402598,-3.5103896 H 18.788312 V 9.5155847 H -4.0402598 Z m 3.80476197,4.33463201 V 3.1203464 H 14.8658 V 0.82424241 Z" /></clipPath><clipPath
       clipPathUnits="userSpaceOnUse"
       id="clipPath9561"><rect
         style="display:none;fill:none;stroke:#000000;stroke-width:0.2;stroke-opacity:1"
         id="rect9563"
         width="15.395671"
         height="1.4718615"
         x="-0.13246737"
         y="3.1532454" /><path
         id="lpe_path-effect9565"
         style="fill:none;stroke:#000000;stroke-width:0.2;stroke-opacity:1"
         class="powerclip"
         d="M -4.0402598,-3.5103896 H 18.788312 V 9.5155847 H -4.0402598 Z m 3.90779243,6.663635 V 4.6251069 H 15.263204 V 3.1532454 Z" /></clipPath><marker
       style="overflow:visible"
       id="TriangleStart-5"
       refX="0"
       refY="0"
       orient="auto-start-reverse"
       inkscape:stockid="TriangleStart"
       markerWidth="2.3239999"
       markerHeight="2.6867051"
       viewBox="0 0 5.3244081 6.1553851"
       inkscape:isstock="true"
       inkscape:collect="always"
       preserveAspectRatio="xMidYMid"><path
         transform="scale(0.5)"
         style="fill:context-stroke;fill-rule:evenodd;stroke:context-stroke;stroke-width:1pt"
         d="M 5.77,0 -2.88,5 V -5 Z"
         id="path135-3" /></marker></defs><sodipodi:namedview
     id="namedview21"
     pagecolor="#ffffff"
     bordercolor="#000000"
     borderopacity="0.25"
     inkscape:showpageshadow="2"
     inkscape:pageopacity="0.0"
     inkscape:pagecheckerboard="0"
     inkscape:deskcolor="#d1d1d1"
     showgrid="false"
     inkscape:lockguides="true"
     showguides="true"
     inkscape:zoom="32.238803"
     inkscape:cx="8.1113432"
     inkscape:cy="15.028473"
     inkscape:window-width="1694"
     inkscape:window-height="1356"
     inkscape:window-x="1706"
     inkscape:window-y="5"
     inkscape:window-maximized="0"
     inkscape:current-layer="svg19"><inkscape:grid
       type="xygrid"
       id="grid4689"
       spacingx="0.5"
       spacingy="0.5"
       originx="0"
       originy="0" /></sodipodi:namedview><g
     id="g8647"
     clip-path="url(#clipPath9551)"
     inkscape:path-effect="#path-effect9555"
     transform="translate(4.0294372)"><path
       style="fill:none;stroke:#000000;stroke-width:0.159494;stroke-opacity:1"
       id="rect6973"
       width="12.669078"
       height="2.8664804"
       x="1.0394872"
       y="1.5693574"
       rx="0.42899999"
       ry="0.4092811"
       d="M 1.4684872,1.5693574 H 13.279565 c 0.237666,0 0.429,0.1825394 0.429,0.4092811 v 2.0479181 c 0,0.2267418 -0.191334,0.4092811 -0.429,0.4092811 H 1.4684872 c -0.237666,0 -0.429,-0.1825393 -0.429,-0.4092811 V 1.9786385 c 0,-0.2267417 0.191334,-0.4092811 0.429,-0.4092811 z"
       sodipodi:type="rect" /><path
       d="m 3.1125544,3.2955268 c 0,0.031365 -0.017333,0.058603 -0.043746,0.072635 L 2.416745,3.734638 c -0.013207,0.0099 -0.029714,0.014857 -0.047047,0.014857 -0.017333,0 -0.033841,-0.00495 -0.047047,-0.014857 L 1.670586,3.3681618 C 1.6441733,3.35413 1.62684,3.3268919 1.62684,3.2955268 V 2.5526696 c 0,-0.031365 0.017333,-0.058603 0.043746,-0.072635 L 2.3226493,2.1135585 c 0.013207,-0.0099 0.029714,-0.014857 0.047047,-0.014857 0.017333,0 0.033841,0.00495 0.047047,0.014857 l 0.6520635,0.3664762 c 0.026413,0.014032 0.043746,0.04127 0.043746,0.072635 V 3.2955268 M 2.3696971,2.2761617 1.8777606,2.5526696 2.3696971,2.8291776 2.8616337,2.5526696 2.3696971,2.2761617 M 1.7919194,3.2468284 2.2871575,3.5258126 V 2.9719713 L 1.7919194,2.6938125 v 0.5530159 m 1.1555556,0 V 2.6938125 L 2.4522369,2.9719713 v 0.5538413 z"
       id="path8176"
       style="stroke-width:0.08254"
       inkscape:original-d="m 3.1125544,3.2955268 c 0,0.031365 -0.017333,0.058603 -0.043746,0.072635 L 2.416745,3.734638 c -0.013207,0.0099 -0.029714,0.014857 -0.047047,0.014857 -0.017333,0 -0.033841,-0.00495 -0.047047,-0.014857 L 1.670586,3.3681618 C 1.6441733,3.35413 1.62684,3.3268919 1.62684,3.2955268 V 2.5526696 c 0,-0.031365 0.017333,-0.058603 0.043746,-0.072635 L 2.3226493,2.1135585 c 0.013207,-0.0099 0.029714,-0.014857 0.047047,-0.014857 0.017333,0 0.033841,0.00495 0.047047,0.014857 l 0.6520635,0.3664762 c 0.026413,0.014032 0.043746,0.04127 0.043746,0.072635 V 3.2955268 M 2.3696971,2.2761617 1.8777606,2.5526696 2.3696971,2.8291776 2.8616337,2.5526696 2.3696971,2.2761617 M 1.7919194,3.2468284 2.2871575,3.5258126 V 2.9719713 L 1.7919194,2.6938125 v 0.5530159 m 1.1555556,0 V 2.6938125 L 2.4522369,2.9719713 v 0.5538413 z" /><path
       d="m 9.1030304,3.3151515 c 0,0.031365 -0.017333,0.058603 -0.043746,0.072635 L 8.407221,3.7542627 c -0.013207,0.0099 -0.029714,0.014857 -0.047047,0.014857 -0.017333,0 -0.033841,-0.00495 -0.047047,-0.014857 L 7.661062,3.3877865 C 7.634649,3.3737545 7.617316,3.3465165 7.617316,3.3151515 V 2.5722943 c 0,-0.031365 0.017333,-0.058603 0.043746,-0.072635 L 8.3131253,2.1331832 c 0.013207,-0.0099 0.029714,-0.014857 0.047047,-0.014857 0.017333,0 0.033841,0.00495 0.047047,0.014857 l 0.6520635,0.3664762 c 0.026413,0.014032 0.043746,0.04127 0.043746,0.072635 V 3.3151515 M 8.3601731,2.2957864 7.8682366,2.5722943 8.3601731,2.8488023 8.8521097,2.5722943 8.3601731,2.2957864 M 7.7823954,3.2664531 8.2776335,3.5454373 V 2.991596 L 7.7823954,2.7134372 v 0.5530159 m 1.1555556,0 V 2.7134372 L 8.4427129,2.991596 v 0.5538413 z"
       id="path8176-1"
       style="stroke-width:0.08254"
       inkscape:original-d="m 9.1030304,3.3151515 c 0,0.031365 -0.017333,0.058603 -0.043746,0.072635 L 8.407221,3.7542627 c -0.013207,0.0099 -0.029714,0.014857 -0.047047,0.014857 -0.017333,0 -0.033841,-0.00495 -0.047047,-0.014857 L 7.661062,3.3877865 C 7.634649,3.3737545 7.617316,3.3465165 7.617316,3.3151515 V 2.5722943 c 0,-0.031365 0.017333,-0.058603 0.043746,-0.072635 L 8.3131253,2.1331832 c 0.013207,-0.0099 0.029714,-0.014857 0.047047,-0.014857 0.017333,0 0.033841,0.00495 0.047047,0.014857 l 0.6520635,0.3664762 c 0.026413,0.014032 0.043746,0.04127 0.043746,0.072635 V 3.3151515 M 8.3601731,2.2957864 7.8682366,2.5722943 8.3601731,2.8488023 8.8521097,2.5722943 8.3601731,2.2957864 M 7.7823954,3.2664531 8.2776335,3.5454373 V 2.991596 L 7.7823954,2.7134372 v 0.5530159 m 1.1555556,0 V 2.7134372 L 8.4427129,2.991596 v 0.5538413 z" /><path
       d="m 13.047619,3.374026 c 0,0.031365 -0.01733,0.058603 -0.04375,0.072635 l -0.652064,0.3664762 c -0.01321,0.0099 -0.02971,0.014857 -0.04705,0.014857 -0.01733,0 -0.03384,-0.00495 -0.04705,-0.014857 L 11.60565,3.446661 C 11.57924,3.432629 11.5619,3.405391 11.5619,3.374026 V 2.6311688 c 0,-0.031365 0.01733,-0.058603 0.04375,-0.072635 l 0.652063,-0.3664761 c 0.01321,-0.0099 0.02971,-0.014857 0.04705,-0.014857 0.01733,0 0.03384,0.00495 0.04705,0.014857 l 0.652064,0.3664762 c 0.02641,0.014032 0.04375,0.04127 0.04375,0.072635 V 3.374026 m -0.742866,-1.0193651 -0.491936,0.2765079 0.491936,0.276508 0.491937,-0.276508 -0.491937,-0.2765079 m -0.577777,0.9706667 0.495238,0.2789842 V 3.0504705 L 11.726984,2.7723117 v 0.5530159 m 1.155555,0 V 2.7723117 l -0.495238,0.2781588 v 0.5538413 z"
       id="path8176-1-7"
       style="stroke-width:0.08254"
       inkscape:original-d="m 13.047619,3.374026 c 0,0.031365 -0.01733,0.058603 -0.04375,0.072635 l -0.652064,0.3664762 c -0.01321,0.0099 -0.02971,0.014857 -0.04705,0.014857 -0.01733,0 -0.03384,-0.00495 -0.04705,-0.014857 L 11.60565,3.446661 C 11.57924,3.432629 11.5619,3.405391 11.5619,3.374026 V 2.6311688 c 0,-0.031365 0.01733,-0.058603 0.04375,-0.072635 l 0.652063,-0.3664761 c 0.01321,-0.0099 0.02971,-0.014857 0.04705,-0.014857 0.01733,0 0.03384,0.00495 0.04705,0.014857 l 0.652064,0.3664762 c 0.02641,0.014032 0.04375,0.04127 0.04375,0.072635 V 3.374026 m -0.742866,-1.0193651 -0.491936,0.2765079 0.491936,0.276508 0.491937,-0.276508 -0.491937,-0.2765079 m -0.577777,0.9706667 0.495238,0.2789842 V 3.0504705 L 11.726984,2.7723117 v 0.5530159 m 1.155555,0 V 2.7723117 l -0.495238,0.2781588 v 0.5538413 z" /><path
       d="m 11.075325,3.3445888 c 0,0.031365 -0.01733,0.058603 -0.04375,0.072635 L 10.379511,3.7837 c -0.01321,0.0099 -0.02971,0.014857 -0.04705,0.014857 -0.01733,0 -0.03384,-0.00495 -0.04705,-0.014857 L 9.6333564,3.4172238 c -0.026413,-0.014032 -0.043746,-0.04127 -0.043746,-0.072635 V 2.6017316 c 0,-0.031365 0.017333,-0.058603 0.043746,-0.072635 L 10.28542,2.1626205 c 0.01321,-0.0099 0.02971,-0.014857 0.04705,-0.014857 0.01733,0 0.03384,0.00495 0.04705,0.014857 l 0.652063,0.3664762 c 0.02641,0.014032 0.04375,0.04127 0.04375,0.072635 V 3.3445888 M 10.332467,2.3252237 9.840531,2.6017316 10.332467,2.8782396 10.824404,2.6017316 10.332467,2.3252237 M 9.7546898,3.2958904 10.249928,3.5748746 V 3.0210333 L 9.7546898,2.7428745 v 0.5530159 m 1.1555552,0 V 2.7428745 l -0.495238,0.2781588 v 0.5538413 z"
       id="path8176-1-72"
       style="stroke-width:0.08254"
       inkscape:original-d="m 11.075325,3.3445888 c 0,0.031365 -0.01733,0.058603 -0.04375,0.072635 L 10.379511,3.7837 c -0.01321,0.0099 -0.02971,0.014857 -0.04705,0.014857 -0.01733,0 -0.03384,-0.00495 -0.04705,-0.014857 L 9.6333564,3.4172238 c -0.026413,-0.014032 -0.043746,-0.04127 -0.043746,-0.072635 V 2.6017316 c 0,-0.031365 0.017333,-0.058603 0.043746,-0.072635 L 10.28542,2.1626205 c 0.01321,-0.0099 0.02971,-0.014857 0.04705,-0.014857 0.01733,0 0.03384,0.00495 0.04705,0.014857 l 0.652063,0.3664762 c 0.02641,0.014032 0.04375,0.04127 0.04375,0.072635 V 3.3445888 M 10.332467,2.3252237 9.840531,2.6017316 10.332467,2.8782396 10.824404,2.6017316 10.332467,2.3252237 M 9.7546898,3.2958904 10.249928,3.5748746 V 3.0210333 L 9.7546898,2.7428745 v 0.5530159 m 1.1555552,0 V 2.7428745 l -0.495238,0.2781588 v 0.5538413 z" /><path
       d="m 7.1307358,3.3151515 c 0,0.031365 -0.017333,0.058603 -0.043746,0.072635 L 6.4349264,3.7542627 c -0.013207,0.0099 -0.029714,0.014857 -0.047047,0.014857 -0.017333,0 -0.033841,-0.00495 -0.047047,-0.014857 L 5.6887674,3.3877865 c -0.026413,-0.014032 -0.043746,-0.04127 -0.043746,-0.072635 V 2.5722943 c 0,-0.031365 0.017333,-0.058603 0.043746,-0.072635 L 6.3408307,2.1331832 c 0.013207,-0.0099 0.029714,-0.014857 0.047047,-0.014857 0.017333,0 0.033841,0.00495 0.047047,0.014857 l 0.6520635,0.3664762 c 0.026413,0.014032 0.043746,0.04127 0.043746,0.072635 V 3.3151515 M 6.3878785,2.2957864 5.895942,2.5722943 6.3878785,2.8488023 6.8798151,2.5722943 6.3878785,2.2957864 M 5.8101008,3.2664531 6.3053389,3.5454373 V 2.991596 L 5.8101008,2.7134372 v 0.5530159 m 1.1555556,0 V 2.7134372 L 6.4704183,2.991596 v 0.5538413 z"
       id="path8176-8"
       style="stroke-width:0.08254"
       inkscape:original-d="m 7.1307358,3.3151515 c 0,0.031365 -0.017333,0.058603 -0.043746,0.072635 L 6.4349264,3.7542627 c -0.013207,0.0099 -0.029714,0.014857 -0.047047,0.014857 -0.017333,0 -0.033841,-0.00495 -0.047047,-0.014857 L 5.6887674,3.3877865 c -0.026413,-0.014032 -0.043746,-0.04127 -0.043746,-0.072635 V 2.5722943 c 0,-0.031365 0.017333,-0.058603 0.043746,-0.072635 L 6.3408307,2.1331832 c 0.013207,-0.0099 0.029714,-0.014857 0.047047,-0.014857 0.017333,0 0.033841,0.00495 0.047047,0.014857 l 0.6520635,0.3664762 c 0.026413,0.014032 0.043746,0.04127 0.043746,0.072635 V 3.3151515 M 6.3878785,2.2957864 5.895942,2.5722943 6.3878785,2.8488023 6.8798151,2.5722943 6.3878785,2.2957864 M 5.8101008,3.2664531 6.3053389,3.5454373 V 2.991596 L 5.8101008,2.7134372 v 0.5530159 m 1.1555556,0 V 2.7134372 L 6.4704183,2.991596 v 0.5538413 z" /><path
       d="m 5.0995671,3.3151515 c 0,0.031365 -0.017333,0.058603 -0.043746,0.072635 L 4.4037577,3.7542627 c -0.013207,0.0099 -0.029714,0.014857 -0.047047,0.014857 -0.017333,0 -0.033841,-0.00495 -0.047047,-0.014857 L 3.6575987,3.3877865 c -0.026413,-0.014032 -0.043746,-0.04127 -0.043746,-0.072635 V 2.5722943 c 0,-0.031365 0.017333,-0.058603 0.043746,-0.072635 L 4.309662,2.1331832 c 0.013207,-0.0099 0.029714,-0.014857 0.047047,-0.014857 0.017333,0 0.033841,0.00495 0.047047,0.014857 l 0.6520635,0.3664762 c 0.026413,0.014032 0.043746,0.04127 0.043746,0.072635 V 3.3151515 M 4.3567098,2.2957864 3.8647733,2.5722943 4.3567098,2.8488023 4.8486464,2.5722943 4.3567098,2.2957864 M 3.7789321,3.2664531 4.2741702,3.5454373 V 2.991596 L 3.7789321,2.7134372 v 0.5530159 m 1.1555556,0 V 2.7134372 L 4.4392496,2.991596 v 0.5538413 z"
       id="path8176-8-4"
       style="stroke-width:0.08254"
       inkscape:original-d="m 5.0995671,3.3151515 c 0,0.031365 -0.017333,0.058603 -0.043746,0.072635 L 4.4037577,3.7542627 c -0.013207,0.0099 -0.029714,0.014857 -0.047047,0.014857 -0.017333,0 -0.033841,-0.00495 -0.047047,-0.014857 L 3.6575987,3.3877865 c -0.026413,-0.014032 -0.043746,-0.04127 -0.043746,-0.072635 V 2.5722943 c 0,-0.031365 0.017333,-0.058603 0.043746,-0.072635 L 4.309662,2.1331832 c 0.013207,-0.0099 0.029714,-0.014857 0.047047,-0.014857 0.017333,0 0.033841,0.00495 0.047047,0.014857 l 0.6520635,0.3664762 c 0.026413,0.014032 0.043746,0.04127 0.043746,0.072635 V 3.3151515 M 4.3567098,2.2957864 3.8647733,2.5722943 4.3567098,2.8488023 4.8486464,2.5722943 4.3567098,2.2957864 M 3.7789321,3.2664531 4.2741702,3.5454373 V 2.991596 L 3.7789321,2.7134372 v 0.5530159 m 1.1555556,0 V 2.7134372 L 4.4392496,2.991596 v 0.5538413 z" /></g><rect
     style="fill:none;stroke:#000000;stroke-width:0.159494;stroke-opacity:1"
     id="rect6973-4"
     width="12.669078"
     height="2.8664804"
     x="5.0542059"
     y="6.0438156"
     rx="0.42899999"
     ry="0.4092811" /><path
     d="m 7.1272732,7.7699852 c 0,0.031365 -0.01733,0.058603 -0.04375,0.072635 l -0.652064,0.3664762 c -0.01321,0.0099 -0.02971,0.014857 -0.04705,0.014857 -0.01733,0 -0.03384,-0.00495 -0.04705,-0.014857 L 5.6853042,7.8426202 c -0.02641,-0.014032 -0.04375,-0.04127 -0.04375,-0.072635 V 7.027128 c 0,-0.031365 0.01733,-0.058603 0.04375,-0.072635 l 0.652063,-0.3664761 c 0.01321,-0.0099 0.02971,-0.014857 0.04705,-0.014857 0.01733,0 0.03384,0.00495 0.04705,0.014857 l 0.652064,0.3664762 c 0.02641,0.014032 0.04375,0.04127 0.04375,0.072635 V 7.7699852 M 6.3844152,6.7506201 5.8924792,7.027128 6.3844152,7.303636 6.8763522,7.027128 6.3844152,6.7506201 M 5.8066382,7.7212868 6.3018762,8.000271 V 7.4464297 L 5.8066382,7.1682709 v 0.5530159 m 1.155555,0 V 7.1682709 L 6.4669552,7.4464297 V 8.000271 Z"
     id="path8176-9"
     style="fill:#800080;fill-opacity:1;stroke-width:0.08254" /><path
     d="m 13.117749,7.7896099 c 0,0.031365 -0.01733,0.058603 -0.04375,0.072635 l -0.652064,0.3664762 c -0.01321,0.0099 -0.02971,0.014857 -0.04705,0.014857 -0.01733,0 -0.03384,-0.00495 -0.04705,-0.014857 L 11.67578,7.8622449 c -0.02641,-0.014032 -0.04375,-0.04127 -0.04375,-0.072635 V 7.0467527 c 0,-0.031365 0.01733,-0.058603 0.04375,-0.072635 l 0.652064,-0.3664761 c 0.01321,-0.0099 0.02971,-0.014857 0.04705,-0.014857 0.01733,0 0.03384,0.00495 0.04705,0.014857 l 0.652064,0.3664762 c 0.02641,0.014032 0.04375,0.04127 0.04375,0.072635 v 0.7428571 m -0.742867,-1.0193651 -0.491936,0.2765079 0.491936,0.276508 0.491937,-0.276508 -0.491937,-0.2765079 m -0.577777,0.9706667 0.495238,0.2789842 V 7.4660544 L 11.797114,7.1878956 v 0.5530159 m 1.155555,0 V 7.1878956 l -0.495238,0.2781588 v 0.5538413 z"
     id="path8176-1-6"
     style="fill:#800080;fill-opacity:1;stroke-width:0.08254" /><path
     d="m 17.062337,7.8484844 c 0,0.031365 -0.01733,0.058603 -0.04375,0.072635 l -0.652064,0.3664762 c -0.01321,0.0099 -0.02971,0.014857 -0.04705,0.014857 -0.01733,0 -0.03384,-0.00495 -0.04705,-0.014857 L 15.620368,7.9211194 c -0.02641,-0.014032 -0.04375,-0.04127 -0.04375,-0.072635 V 7.1056272 c 0,-0.031365 0.01733,-0.058603 0.04375,-0.072635 l 0.652063,-0.3664761 c 0.01321,-0.0099 0.02971,-0.014857 0.04705,-0.014857 0.01733,0 0.03384,0.00495 0.04705,0.014857 l 0.652064,0.3664762 c 0.02641,0.014032 0.04375,0.04127 0.04375,0.072635 v 0.7428571 m -0.742866,-1.0193651 -0.491936,0.2765079 0.491936,0.276508 0.491937,-0.276508 -0.491937,-0.2765079 M 15.741702,7.799786 16.23694,8.0787702 V 7.5249289 L 15.741702,7.2467701 V 7.799786 m 1.155555,0 V 7.2467701 l -0.495238,0.2781588 v 0.5538413 z"
     id="path8176-1-7-6"
     style="fill:#800080;fill-opacity:1;stroke-width:0.08254" /><path
     d="m 15.090043,7.8190472 c 0,0.031365 -0.01733,0.058603 -0.04375,0.072635 l -0.652064,0.3664762 c -0.01321,0.0099 -0.02971,0.014857 -0.04705,0.014857 -0.01733,0 -0.03384,-0.00495 -0.04705,-0.014857 L 13.648075,7.8916822 c -0.02641,-0.014032 -0.04375,-0.04127 -0.04375,-0.072635 V 7.07619 c 0,-0.031365 0.01733,-0.058603 0.04375,-0.072635 l 0.652063,-0.3664761 c 0.01321,-0.0099 0.02971,-0.014857 0.04705,-0.014857 0.01733,0 0.03384,0.00495 0.04705,0.014857 l 0.652063,0.3664762 c 0.02641,0.014032 0.04375,0.04127 0.04375,0.072635 V 7.8190472 M 14.347185,6.7996821 13.855249,7.07619 14.347185,7.352698 14.839122,7.07619 14.347185,6.7996821 M 13.769408,7.7703488 14.264646,8.049333 V 7.4954917 L 13.769408,7.2173329 v 0.5530159 m 1.155555,0 V 7.2173329 L 14.429725,7.4954917 V 8.049333 Z"
     id="path8176-1-72-9"
     style="fill:#800080;fill-opacity:1;stroke-width:0.08254" /><path
     d="m 11.145454,7.7896099 c 0,0.031365 -0.01733,0.058603 -0.04375,0.072635 l -0.652063,0.3664762 c -0.01321,0.0099 -0.02971,0.014857 -0.04705,0.014857 -0.01733,0 -0.03384,-0.00495 -0.04705,-0.014857 L 9.7034862,7.8622449 c -0.02641,-0.014032 -0.04375,-0.04127 -0.04375,-0.072635 V 7.0467527 c 0,-0.031365 0.01733,-0.058603 0.04375,-0.072635 L 10.355549,6.6076416 c 0.01321,-0.0099 0.02971,-0.014857 0.04705,-0.014857 0.01733,0 0.03384,0.00495 0.04705,0.014857 l 0.652063,0.3664762 c 0.02641,0.014032 0.04375,0.04127 0.04375,0.072635 V 7.7896099 M 10.402597,6.7702448 9.9106602,7.0467527 10.402597,7.3232607 10.894533,7.0467527 10.402597,6.7702448 M 9.8248192,7.7409115 10.320057,8.0198957 V 7.4660544 L 9.8248192,7.1878956 v 0.5530159 m 1.1555558,0 V 7.1878956 l -0.495238,0.2781588 v 0.5538413 z"
     id="path8176-8-40"
     style="fill:#800080;fill-opacity:1;stroke-width:0.08254" /><path
     d="m 9.1142852,7.7896099 c 0,0.031365 -0.01733,0.058603 -0.04375,0.072635 l -0.652063,0.3664762 c -0.01321,0.0099 -0.02971,0.014857 -0.04705,0.014857 -0.01733,0 -0.03384,-0.00495 -0.04705,-0.014857 L 7.6723172,7.8622449 c -0.02641,-0.014032 -0.04375,-0.04127 -0.04375,-0.072635 V 7.0467527 c 0,-0.031365 0.01733,-0.058603 0.04375,-0.072635 l 0.652063,-0.3664761 c 0.01321,-0.0099 0.02971,-0.014857 0.04705,-0.014857 0.01733,0 0.03384,0.00495 0.04705,0.014857 l 0.652064,0.3664762 c 0.02641,0.014032 0.04375,0.04127 0.04375,0.072635 v 0.7428571 m -0.742856,-1.0193651 -0.491937,0.2765079 0.491937,0.276508 0.491937,-0.276508 -0.491937,-0.2765079 m -0.577778,0.9706667 0.495238,0.2789842 V 7.4660544 L 7.7936502,7.1878956 v 0.5530159 m 1.155556,0 V 7.1878956 l -0.495238,0.2781588 v 0.5538413 z"
     id="path8176-8-4-1"
     style="fill:#800080;fill-opacity:1;stroke-width:0.08254" /><g
     id="g8647-4-5"
     transform="translate(4.0147182,8.974893)"
     clip-path="url(#clipPath9561)"
     inkscape:path-effect="#path-effect9565"><path
       style="fill:none;stroke:#000000;stroke-width:0.159494;stroke-opacity:1"
       id="rect6973-4-7"
       width="12.669078"
       height="2.8664804"
       x="1.0394872"
       y="1.5693574"
       rx="0.42899999"
       ry="0.4092811"
       d="M 1.4684872,1.5693574 H 13.279565 c 0.237666,0 0.429,0.1825394 0.429,0.4092811 v 2.0479181 c 0,0.2267418 -0.191334,0.4092811 -0.429,0.4092811 H 1.4684872 c -0.237666,0 -0.429,-0.1825393 -0.429,-0.4092811 V 1.9786385 c 0,-0.2267417 0.191334,-0.4092811 0.429,-0.4092811 z"
       sodipodi:type="rect" /><path
       d="m 3.1125544,3.2955268 c 0,0.031365 -0.017333,0.058603 -0.043746,0.072635 L 2.416745,3.734638 c -0.013207,0.0099 -0.029714,0.014857 -0.047047,0.014857 -0.017333,0 -0.033841,-0.00495 -0.047047,-0.014857 L 1.670586,3.3681618 C 1.6441733,3.35413 1.62684,3.3268919 1.62684,3.2955268 V 2.5526696 c 0,-0.031365 0.017333,-0.058603 0.043746,-0.072635 L 2.3226493,2.1135585 c 0.013207,-0.0099 0.029714,-0.014857 0.047047,-0.014857 0.017333,0 0.033841,0.00495 0.047047,0.014857 l 0.6520635,0.3664762 c 0.026413,0.014032 0.043746,0.04127 0.043746,0.072635 V 3.2955268 M 2.3696971,2.2761617 1.8777606,2.5526696 2.3696971,2.8291776 2.8616337,2.5526696 2.3696971,2.2761617 M 1.7919194,3.2468284 2.2871575,3.5258126 V 2.9719713 L 1.7919194,2.6938125 v 0.5530159 m 1.1555556,0 V 2.6938125 L 2.4522369,2.9719713 v 0.5538413 z"
       id="path8176-9-4"
       style="stroke-width:0.08254"
       inkscape:original-d="m 3.1125544,3.2955268 c 0,0.031365 -0.017333,0.058603 -0.043746,0.072635 L 2.416745,3.734638 c -0.013207,0.0099 -0.029714,0.014857 -0.047047,0.014857 -0.017333,0 -0.033841,-0.00495 -0.047047,-0.014857 L 1.670586,3.3681618 C 1.6441733,3.35413 1.62684,3.3268919 1.62684,3.2955268 V 2.5526696 c 0,-0.031365 0.017333,-0.058603 0.043746,-0.072635 L 2.3226493,2.1135585 c 0.013207,-0.0099 0.029714,-0.014857 0.047047,-0.014857 0.017333,0 0.033841,0.00495 0.047047,0.014857 l 0.6520635,0.3664762 c 0.026413,0.014032 0.043746,0.04127 0.043746,0.072635 V 3.2955268 M 2.3696971,2.2761617 1.8777606,2.5526696 2.3696971,2.8291776 2.8616337,2.5526696 2.3696971,2.2761617 M 1.7919194,3.2468284 2.2871575,3.5258126 V 2.9719713 L 1.7919194,2.6938125 v 0.5530159 m 1.1555556,0 V 2.6938125 L 2.4522369,2.9719713 v 0.5538413 z" /><path
       d="m 9.1030304,3.3151515 c 0,0.031365 -0.017333,0.058603 -0.043746,0.072635 L 8.407221,3.7542627 c -0.013207,0.0099 -0.029714,0.014857 -0.047047,0.014857 -0.017333,0 -0.033841,-0.00495 -0.047047,-0.014857 L 7.661062,3.3877865 C 7.634649,3.3737545 7.617316,3.3465165 7.617316,3.3151515 V 2.5722943 c 0,-0.031365 0.017333,-0.058603 0.043746,-0.072635 L 8.3131253,2.1331832 c 0.013207,-0.0099 0.029714,-0.014857 0.047047,-0.014857 0.017333,0 0.033841,0.00495 0.047047,0.014857 l 0.6520635,0.3664762 c 0.026413,0.014032 0.043746,0.04127 0.043746,0.072635 V 3.3151515 M 8.3601731,2.2957864 7.8682366,2.5722943 8.3601731,2.8488023 8.8521097,2.5722943 8.3601731,2.2957864 M 7.7823954,3.2664531 8.2776335,3.5454373 V 2.991596 L 7.7823954,2.7134372 v 0.5530159 m 1.1555556,0 V 2.7134372 L 8.4427129,2.991596 v 0.5538413 z"
       id="path8176-1-6-5"
       style="stroke-width:0.08254"
       inkscape:original-d="m 9.1030304,3.3151515 c 0,0.031365 -0.017333,0.058603 -0.043746,0.072635 L 8.407221,3.7542627 c -0.013207,0.0099 -0.029714,0.014857 -0.047047,0.014857 -0.017333,0 -0.033841,-0.00495 -0.047047,-0.014857 L 7.661062,3.3877865 C 7.634649,3.3737545 7.617316,3.3465165 7.617316,3.3151515 V 2.5722943 c 0,-0.031365 0.017333,-0.058603 0.043746,-0.072635 L 8.3131253,2.1331832 c 0.013207,-0.0099 0.029714,-0.014857 0.047047,-0.014857 0.017333,0 0.033841,0.00495 0.047047,0.014857 l 0.6520635,0.3664762 c 0.026413,0.014032 0.043746,0.04127 0.043746,0.072635 V 3.3151515 M 8.3601731,2.2957864 7.8682366,2.5722943 8.3601731,2.8488023 8.8521097,2.5722943 8.3601731,2.2957864 M 7.7823954,3.2664531 8.2776335,3.5454373 V 2.991596 L 7.7823954,2.7134372 v 0.5530159 m 1.1555556,0 V 2.7134372 L 8.4427129,2.991596 v 0.5538413 z" /><path
       d="m 13.047619,3.374026 c 0,0.031365 -0.01733,0.058603 -0.04375,0.072635 l -0.652064,0.3664762 c -0.01321,0.0099 -0.02971,0.014857 -0.04705,0.014857 -0.01733,0 -0.03384,-0.00495 -0.04705,-0.014857 L 11.60565,3.446661 C 11.57924,3.432629 11.5619,3.405391 11.5619,3.374026 V 2.6311688 c 0,-0.031365 0.01733,-0.058603 0.04375,-0.072635 l 0.652063,-0.3664761 c 0.01321,-0.0099 0.02971,-0.014857 0.04705,-0.014857 0.01733,0 0.03384,0.00495 0.04705,0.014857 l 0.652064,0.3664762 c 0.02641,0.014032 0.04375,0.04127 0.04375,0.072635 V 3.374026 m -0.742866,-1.0193651 -0.491936,0.2765079 0.491936,0.276508 0.491937,-0.276508 -0.491937,-0.2765079 m -0.577777,0.9706667 0.495238,0.2789842 V 3.0504705 L 11.726984,2.7723117 v 0.5530159 m 1.155555,0 V 2.7723117 l -0.495238,0.2781588 v 0.5538413 z"
       id="path8176-1-7-6-8"
       style="stroke-width:0.08254"
       inkscape:original-d="m 13.047619,3.374026 c 0,0.031365 -0.01733,0.058603 -0.04375,0.072635 l -0.652064,0.3664762 c -0.01321,0.0099 -0.02971,0.014857 -0.04705,0.014857 -0.01733,0 -0.03384,-0.00495 -0.04705,-0.014857 L 11.60565,3.446661 C 11.57924,3.432629 11.5619,3.405391 11.5619,3.374026 V 2.6311688 c 0,-0.031365 0.01733,-0.058603 0.04375,-0.072635 l 0.652063,-0.3664761 c 0.01321,-0.0099 0.02971,-0.014857 0.04705,-0.014857 0.01733,0 0.03384,0.00495 0.04705,0.014857 l 0.652064,0.3664762 c 0.02641,0.014032 0.04375,0.04127 0.04375,0.072635 V 3.374026 m -0.742866,-1.0193651 -0.491936,0.2765079 0.491936,0.276508 0.491937,-0.276508 -0.491937,-0.2765079 m -0.577777,0.9706667 0.495238,0.2789842 V 3.0504705 L 11.726984,2.7723117 v 0.5530159 m 1.155555,0 V 2.7723117 l -0.495238,0.2781588 v 0.5538413 z" /><path
       d="m 11.075325,3.3445888 c 0,0.031365 -0.01733,0.058603 -0.04375,0.072635 L 10.379511,3.7837 c -0.01321,0.0099 -0.02971,0.014857 -0.04705,0.014857 -0.01733,0 -0.03384,-0.00495 -0.04705,-0.014857 L 9.6333564,3.4172238 c -0.026413,-0.014032 -0.043746,-0.04127 -0.043746,-0.072635 V 2.6017316 c 0,-0.031365 0.017333,-0.058603 0.043746,-0.072635 L 10.28542,2.1626205 c 0.01321,-0.0099 0.02971,-0.014857 0.04705,-0.014857 0.01733,0 0.03384,0.00495 0.04705,0.014857 l 0.652063,0.3664762 c 0.02641,0.014032 0.04375,0.04127 0.04375,0.072635 V 3.3445888 M 10.332467,2.3252237 9.840531,2.6017316 10.332467,2.8782396 10.824404,2.6017316 10.332467,2.3252237 M 9.7546898,3.2958904 10.249928,3.5748746 V 3.0210333 L 9.7546898,2.7428745 v 0.5530159 m 1.1555552,0 V 2.7428745 l -0.495238,0.2781588 v 0.5538413 z"
       id="path8176-1-72-9-5"
       style="stroke-width:0.08254"
       inkscape:original-d="m 11.075325,3.3445888 c 0,0.031365 -0.01733,0.058603 -0.04375,0.072635 L 10.379511,3.7837 c -0.01321,0.0099 -0.02971,0.014857 -0.04705,0.014857 -0.01733,0 -0.03384,-0.00495 -0.04705,-0.014857 L 9.6333564,3.4172238 c -0.026413,-0.014032 -0.043746,-0.04127 -0.043746,-0.072635 V 2.6017316 c 0,-0.031365 0.017333,-0.058603 0.043746,-0.072635 L 10.28542,2.1626205 c 0.01321,-0.0099 0.02971,-0.014857 0.04705,-0.014857 0.01733,0 0.03384,0.00495 0.04705,0.014857 l 0.652063,0.3664762 c 0.02641,0.014032 0.04375,0.04127 0.04375,0.072635 V 3.3445888 M 10.332467,2.3252237 9.840531,2.6017316 10.332467,2.8782396 10.824404,2.6017316 10.332467,2.3252237 M 9.7546898,3.2958904 10.249928,3.5748746 V 3.0210333 L 9.7546898,2.7428745 v 0.5530159 m 1.1555552,0 V 2.7428745 l -0.495238,0.2781588 v 0.5538413 z" /><path
       d="m 7.1307358,3.3151515 c 0,0.031365 -0.017333,0.058603 -0.043746,0.072635 L 6.4349264,3.7542627 c -0.013207,0.0099 -0.029714,0.014857 -0.047047,0.014857 -0.017333,0 -0.033841,-0.00495 -0.047047,-0.014857 L 5.6887674,3.3877865 c -0.026413,-0.014032 -0.043746,-0.04127 -0.043746,-0.072635 V 2.5722943 c 0,-0.031365 0.017333,-0.058603 0.043746,-0.072635 L 6.3408307,2.1331832 c 0.013207,-0.0099 0.029714,-0.014857 0.047047,-0.014857 0.017333,0 0.033841,0.00495 0.047047,0.014857 l 0.6520635,0.3664762 c 0.026413,0.014032 0.043746,0.04127 0.043746,0.072635 V 3.3151515 M 6.3878785,2.2957864 5.895942,2.5722943 6.3878785,2.8488023 6.8798151,2.5722943 6.3878785,2.2957864 M 5.8101008,3.2664531 6.3053389,3.5454373 V 2.991596 L 5.8101008,2.7134372 v 0.5530159 m 1.1555556,0 V 2.7134372 L 6.4704183,2.991596 v 0.5538413 z"
       id="path8176-8-40-3"
       style="stroke-width:0.08254"
       inkscape:original-d="m 7.1307358,3.3151515 c 0,0.031365 -0.017333,0.058603 -0.043746,0.072635 L 6.4349264,3.7542627 c -0.013207,0.0099 -0.029714,0.014857 -0.047047,0.014857 -0.017333,0 -0.033841,-0.00495 -0.047047,-0.014857 L 5.6887674,3.3877865 c -0.026413,-0.014032 -0.043746,-0.04127 -0.043746,-0.072635 V 2.5722943 c 0,-0.031365 0.017333,-0.058603 0.043746,-0.072635 L 6.3408307,2.1331832 c 0.013207,-0.0099 0.029714,-0.014857 0.047047,-0.014857 0.017333,0 0.033841,0.00495 0.047047,0.014857 l 0.6520635,0.3664762 c 0.026413,0.014032 0.043746,0.04127 0.043746,0.072635 V 3.3151515 M 6.3878785,2.2957864 5.895942,2.5722943 6.3878785,2.8488023 6.8798151,2.5722943 6.3878785,2.2957864 M 5.8101008,3.2664531 6.3053389,3.5454373 V 2.991596 L 5.8101008,2.7134372 v 0.5530159 m 1.1555556,0 V 2.7134372 L 6.4704183,2.991596 v 0.5538413 z" /><path
       d="m 5.0995671,3.3151515 c 0,0.031365 -0.017333,0.058603 -0.043746,0.072635 L 4.4037577,3.7542627 c -0.013207,0.0099 -0.029714,0.014857 -0.047047,0.014857 -0.017333,0 -0.033841,-0.00495 -0.047047,-0.014857 L 3.6575987,3.3877865 c -0.026413,-0.014032 -0.043746,-0.04127 -0.043746,-0.072635 V 2.5722943 c 0,-0.031365 0.017333,-0.058603 0.043746,-0.072635 L 4.309662,2.1331832 c 0.013207,-0.0099 0.029714,-0.014857 0.047047,-0.014857 0.017333,0 0.033841,0.00495 0.047047,0.014857 l 0.6520635,0.3664762 c 0.026413,0.014032 0.043746,0.04127 0.043746,0.072635 V 3.3151515 M 4.3567098,2.2957864 3.8647733,2.5722943 4.3567098,2.8488023 4.8486464,2.5722943 4.3567098,2.2957864 M 3.7789321,3.2664531 4.2741702,3.5454373 V 2.991596 L 3.7789321,2.7134372 v 0.5530159 m 1.1555556,0 V 2.7134372 L 4.4392496,2.991596 v 0.5538413 z"
       id="path8176-8-4-1-2"
       style="stroke-width:0.08254"
       inkscape:original-d="m 5.0995671,3.3151515 c 0,0.031365 -0.017333,0.058603 -0.043746,0.072635 L 4.4037577,3.7542627 c -0.013207,0.0099 -0.029714,0.014857 -0.047047,0.014857 -0.017333,0 -0.033841,-0.00495 -0.047047,-0.014857 L 3.6575987,3.3877865 c -0.026413,-0.014032 -0.043746,-0.04127 -0.043746,-0.072635 V 2.5722943 c 0,-0.031365 0.017333,-0.058603 0.043746,-0.072635 L 4.309662,2.1331832 c 0.013207,-0.0099 0.029714,-0.014857 0.047047,-0.014857 0.017333,0 0.033841,0.00495 0.047047,0.014857 l 0.6520635,0.3664762 c 0.026413,0.014032 0.043746,0.04127 0.043746,0.072635 V 3.3151515 M 4.3567098,2.2957864 3.8647733,2.5722943 4.3567098,2.8488023 4.8486464,2.5722943 4.3567098,2.2957864 M 3.7789321,3.2664531 4.2741702,3.5454373 V 2.991596 L 3.7789321,2.7134372 v 0.5530159 m 1.1555556,0 V 2.7134372 L 4.4392496,2.991596 v 0.5538413 z" /></g><path
     style="fill:none;stroke:#aaaaaa;stroke-width:0.2;stroke-opacity:1;marker-end:url(#TriangleStart)"
     d="m 11.359307,4.7099567 0.02944,0.8831169"
     id="path10349" /><path
     style="fill:none;stroke:#aaaaaa;stroke-width:0.2;stroke-opacity:1;marker-end:url(#TriangleStart-5)"
     d="m 11.393902,9.1489187 0.02944,0.8831163"
     id="path10349-0" /><path
     style="fill:none;fill-opacity:1;stroke:#aaaaaa;stroke-width:0.2;stroke-opacity:1;marker-start:url(#marker11559);marker-end:url(#marker11559)"
     d="m 4.7653678,14.716889 0.117749,9.331602 12.9229452,0.02944"
     id="path11543" /><path
     style="fill:none;fill-opacity:1;stroke:#800080;stroke-width:0.2;stroke-opacity:1"
     d="m 5.5896108,14.864075 c 0.603838,8.008806 6.0070232,8.103147 11.6571442,8.389611"
     id="path12617"
     sodipodi:nodetypes="cc" /><text
     xml:space="preserve"
     style="font-style:normal;font-variant:normal;font-weight:bold;font-stretch:normal;font-size:0.66667px;font-family:Verdana;-inkscape-font-specification:'Verdana Bold';fill:#000000;fill-opacity:1;stroke:none;stroke-width:0.2;stroke-opacity:1"
     x="13.583805"
     y="25.360323"
     id="text13917"><tspan
       sodipodi:role="line"
       id="tspan13915"
       x="13.583805"
       y="25.360323">max 6 hours</tspan></text><text
     xml:space="preserve"
     style="font-style:normal;font-variant:normal;font-weight:bold;font-stretch:normal;font-size:0.66667px;font-family:Verdana;-inkscape-font-specification:'Verdana Bold';fill:#000000;fill-opacity:1;stroke:none;stroke-width:0.2;stroke-opacity:1"
     x="8.919838"
     y="20.540892"
     id="text14505"><tspan
       sodipodi:role="line"
       id="tspan14503"
       x="8.919838"
       y="20.540892">price in ETH</tspan></text></svg>
