<?xml version="1.0" encoding="UTF-8" standalone="no"?>
<svg
   version="1.1"
   width="24"
   height="24"
   viewBox="0 0 24 24"
   id="svg19"
   sodipodi:docname="nft-onchain.svg"
   xml:space="preserve"
   inkscape:version="1.2 (dc2aedaf03, 2022-05-15)"
   xmlns:inkscape="http://www.inkscape.org/namespaces/inkscape"
   xmlns:sodipodi="http://sodipodi.sourceforge.net/DTD/sodipodi-0.dtd"
   xmlns="http://www.w3.org/2000/svg"
   xmlns:svg="http://www.w3.org/2000/svg"><defs
     id="defs23"><inkscape:path-effect
       effect="powermask"
       id="path-effect24761"
       is_visible="true"
       lpeversion="1"
       uri="#mask-powermask-path-effect24761"
       invert="false"
       hide_mask="false"
       background="true"
       background_color="#ffffffff" /><marker
       style="overflow:visible"
       id="TriangleStart"
       refX="0"
       refY="0"
       orient="auto-start-reverse"
       inkscape:stockid="TriangleStart"
       markerWidth="2.729075"
       markerHeight="3.155"
       viewBox="0 0 5.3244081 6.1553851"
       inkscape:isstock="true"
       inkscape:collect="always"
       preserveAspectRatio="xMidYMid"><path
         transform="scale(0.5)"
         style="fill:context-stroke;fill-rule:evenodd;stroke:context-stroke;stroke-width:1pt"
         d="M 5.77,0 -2.88,5 V -5 Z"
         id="path135" /></marker><inkscape:path-effect
       effect="powerclip"
       id="path-effect18984"
       is_visible="true"
       lpeversion="1"
       inverse="true"
       flatten="false"
       hide_clip="false"
       message="Use fill-rule evenodd on &lt;b&gt;fill and stroke&lt;/b&gt; dialog if no flatten result after convert clip to paths." /><inkscape:path-effect
       effect="powerclip"
       id="path-effect18974"
       is_visible="true"
       lpeversion="1"
       inverse="true"
       flatten="false"
       hide_clip="false"
       message="Use fill-rule evenodd on &lt;b&gt;fill and stroke&lt;/b&gt; dialog if no flatten result after convert clip to paths." /><inkscape:path-effect
       effect="powerclip"
       id="path-effect18964"
       is_visible="true"
       lpeversion="1"
       inverse="true"
       flatten="false"
       hide_clip="false"
       message="Use fill-rule evenodd on &lt;b&gt;fill and stroke&lt;/b&gt; dialog if no flatten result after convert clip to paths." /><inkscape:path-effect
       effect="powerclip"
       id="path-effect16364"
       is_visible="true"
       lpeversion="1"
       inverse="true"
       flatten="false"
       hide_clip="false"
       message="Use fill-rule evenodd on &lt;b&gt;fill and stroke&lt;/b&gt; dialog if no flatten result after convert clip to paths." /><inkscape:perspective
       sodipodi:type="inkscape:persp3d"
       inkscape:vp_x="0 : 12 : 1"
       inkscape:vp_y="0 : 1000 : 0"
       inkscape:vp_z="24 : 12 : 1"
       inkscape:persp3d-origin="12 : 8 : 1"
       id="perspective461" /><mask
       maskUnits="userSpaceOnUse"
       id="mask605"><rect
         style="fill:#241c1c"
         id="rect607"
         width="7.8265395"
         height="12.863833"
         x="5.8074589"
         y="4.0381613" /></mask><mask
       maskUnits="userSpaceOnUse"
       id="mask3350"><rect
         style="fill:none;fill-opacity:1;stroke:#000000;stroke-width:0.2;stroke-dasharray:none;stroke-opacity:1"
         id="rect3352"
         width="3.7259324"
         height="10.220295"
         x="13.654814"
         y="13.280139"
         rx="0.5"
         ry="0.5" /></mask><mask
       maskUnits="userSpaceOnUse"
       id="mask3384"><rect
         style="fill:none;fill-opacity:1;stroke:#000000;stroke-width:0.2;stroke-dasharray:none;stroke-opacity:1"
         id="rect3386"
         width="3.8716393"
         height="10.324371"
         x="13.196877"
         y="13.051171"
         rx="2.7755576e-17"
         ry="2.7755576e-17" /></mask><mask
       maskUnits="userSpaceOnUse"
       id="mask4242"><rect
         style="fill:#241c1c;fill-opacity:1;stroke:#cb0d0d;stroke-width:0;stroke-dasharray:none;stroke-opacity:1"
         id="rect4244"
         width="3.7259324"
         height="10.220295"
         x="12.718126"
         y="13.196877"
         rx="2.7755576e-17"
         ry="2.7755576e-17" /></mask><clipPath
       clipPathUnits="userSpaceOnUse"
       id="clipPath4322"><rect
         style="fill:#241c1c;fill-opacity:1;stroke:#a0a0a0;stroke-width:0;stroke-dasharray:none;stroke-opacity:1"
         id="rect4324"
         width="3.3096271"
         height="9.8248053"
         x="12.843019"
         y="13.092801"
         rx="2.7755576e-17"
         ry="2.7755576e-17" /></clipPath><clipPath
       clipPathUnits="userSpaceOnUse"
       id="clipPath4322-9"><rect
         style="fill:#241c1c;fill-opacity:1;stroke:#a0a0a0;stroke-width:0;stroke-dasharray:none;stroke-opacity:1"
         id="rect4324-4"
         width="3.3096271"
         height="9.8248053"
         x="12.843019"
         y="13.092801"
         rx="2.7755576e-17"
         ry="2.7755576e-17" /></clipPath><clipPath
       clipPathUnits="userSpaceOnUse"
       id="clipPath14576"><rect
         style="fill:none;fill-opacity:1;stroke:#000000;stroke-width:0.270765;stroke-dasharray:none;stroke-opacity:1"
         id="rect14578"
         width="7.8182201"
         height="4.5040832"
         x="6.4672995"
         y="-17.520039"
         transform="scale(1,-1)" /></clipPath><clipPath
       clipPathUnits="userSpaceOnUse"
       id="clipPath16354"><rect
         style="display:none;fill:#cf3b0a;fill-opacity:1;stroke:#000000;stroke-width:0.2;stroke-dasharray:none;stroke-opacity:1"
         id="rect16356"
         width="1.18647"
         height="1.0615785"
         x="10.449263"
         y="11.927147"
         rx="2.7755576e-17"
         ry="2.7755576e-17"
         d="m 10.449263,11.927147 h 1.18647 c 0,0 0,0 0,0 v 1.061578 c 0,0 0,0 0,0 h -1.18647 c 0,0 0,0 0,0 v -1.061578 c 0,0 0,0 0,0 z" /><path
         id="lpe_path-effect16364"
         style="fill:#cf3b0a;fill-opacity:1;stroke:#000000;stroke-width:0.2;stroke-dasharray:none;stroke-opacity:1"
         class="powerclip"
         d="M 1.5192539,-0.97857788 H 20.524112 V 17.493807 H 1.5192539 Z M 10.449263,11.927147 c 0,0 0,0 0,0 v 1.061578 c 0,0 0,0 0,0 h 1.18647 c 0,0 0,0 0,0 v -1.061578 c 0,0 0,0 0,0 z" /></clipPath><clipPath
       clipPathUnits="userSpaceOnUse"
       id="clipPath18960"><rect
         style="display:none;fill:#241c1c;fill-opacity:1;stroke:none;stroke-width:0.193729;stroke-dasharray:0.193729, 0.193729;stroke-dashoffset:0;stroke-opacity:1"
         id="rect18962"
         width="1.5819602"
         height="1.2072853"
         x="10.324371"
         y="13.717259"
         d="m 10.324371,13.717259 h 1.581961 v 1.207286 h -1.581961 z" /></clipPath><clipPath
       clipPathUnits="userSpaceOnUse"
       id="clipPath18970"><rect
         style="display:none;fill:#241c1c;fill-opacity:1;stroke:none;stroke-width:0.2;stroke-dasharray:0.2, 0.2;stroke-dashoffset:0;stroke-opacity:1"
         id="rect18972"
         width="0.81179529"
         height="0.89505637"
         x="9.9288816"
         y="13.821336"
         d="m 9.9288816,13.821336 h 0.8117954 v 0.895056 H 9.9288816 Z" /></clipPath><clipPath
       clipPathUnits="userSpaceOnUse"
       id="clipPath18980"><rect
         style="display:block;fill:#241c1c;fill-opacity:1;stroke:none;stroke-width:0.153685;stroke-dasharray:0.153685, 0.153685;stroke-dashoffset:0;stroke-opacity:1"
         id="rect18982"
         width="1.2905463"
         height="1.1656548"
         x="10.428448"
         y="13.654814" /></clipPath><mask
       maskUnits="userSpaceOnUse"
       id="mask-powermask-path-effect24761"><rect
         style="fill:#241c1c;fill-opacity:1;stroke:#000000;stroke-width:0.457669;stroke-dasharray:none;stroke-dashoffset:0;stroke-opacity:1"
         id="rect24747"
         width="1.0328764"
         height="9.8585491"
         x="10.494837"
         y="14.116693" /></mask></defs><sodipodi:namedview
     id="namedview21"
     pagecolor="#ffffff"
     bordercolor="#000000"
     borderopacity="0.25"
     inkscape:showpageshadow="2"
     inkscape:pageopacity="0.0"
     inkscape:pagecheckerboard="0"
     inkscape:deskcolor="#d1d1d1"
     showgrid="false"
     inkscape:lockguides="true"
     showguides="true"
     inkscape:zoom="33.970588"
     inkscape:cx="12.142857"
     inkscape:cy="15.233766"
     inkscape:window-width="1694"
     inkscape:window-height="1356"
     inkscape:window-x="1706"
     inkscape:window-y="5"
     inkscape:window-maximized="0"
     inkscape:current-layer="svg19"><inkscape:grid
       type="xygrid"
       id="grid4689"
       spacingx="0.5"
       spacingy="0.5"
       originx="0"
       originy="0" /></sodipodi:namedview><path
     style="fill:none;fill-opacity:1;stroke:#000000;stroke-width:0.189488;stroke-dasharray:none;stroke-opacity:1"
     id="rect630"
     width="8.8153696"
     height="8.282897"
     x="6.6139979"
     y="4.1161661"
     rx="0.47371927"
     ry="0.47371927"
     clip-path="url(#clipPath16354)"
     inkscape:path-effect="#path-effect16364"
     d="m 7.0877172,4.1161661 h 7.8679308 c 0.262441,0 0.47372,0.2112788 0.47372,0.4737193 v 7.3354586 c 0,0.26244 -0.211279,0.473719 -0.47372,0.473719 H 7.0877172 c -0.2624405,0 -0.4737193,-0.211279 -0.4737193,-0.473719 V 4.5898854 c 0,-0.2624405 0.2112788,-0.4737193 0.4737193,-0.4737193 z"
     sodipodi:type="rect"
     transform="translate(0.96969714)" /><rect
     style="fill:none;fill-opacity:1;stroke:#000000;stroke-width:0.2;stroke-dasharray:none;stroke-opacity:1"
     id="rect630-8"
     width="9.3044233"
     height="8.7424107"
     x="5.7554207"
     y="13.613183"
     rx="0.5"
     ry="0.5"
     clip-path="url(#clipPath4322)"
     transform="matrix(0.95107548,0,0,0.95107548,-9.4548698,-8.8306345)" /><rect
     style="fill:none;fill-opacity:1;stroke:#000000;stroke-width:0.2;stroke-dasharray:none;stroke-opacity:1"
     id="rect630-8-1"
     width="9.3044233"
     height="8.7424107"
     x="5.7554207"
     y="13.613183"
     rx="0.5"
     ry="0.5"
     clip-path="url(#clipPath4322-9)"
     transform="matrix(-0.95107548,0,0,0.95107548,33.394536,-8.8200354)" /><path
     d="m 5.4007987,8.2480482 c 0,-0.1741145 0.1415317,-0.3156462 0.3156462,-0.3156462 H 6.1237303 V 7.7389414 H 5.7164449 A 0.50910679,0.50910679 0 0 0 5.2073381,8.2480482 0.50910679,0.50910679 0 0 0 5.7164449,8.757155 H 6.1237303 V 8.5636944 H 5.7164449 c -0.1741145,0 -0.3156462,-0.1415317 -0.3156462,-0.3156462 M 5.8182662,8.3498695 H 6.6328371 V 8.1462268 H 5.8182662 V 8.3498695 M 6.7346584,7.7389414 H 6.3273731 V 7.932402 h 0.4072853 c 0.1741146,0 0.3156463,0.1415317 0.3156463,0.3156462 0,0.1741145 -0.1415317,0.3156462 -0.3156463,0.3156462 H 6.3273731 V 8.757155 H 6.7346584 A 0.50910679,0.50910679 0 0 0 7.2437653,8.2480482 0.50910679,0.50910679 0 0 0 6.7346584,7.7389414 Z"
     id="path7633"
     style="fill:#aaaaaa;fill-opacity:1;stroke-width:0.101821" /><path
     d="m 16.90124,8.2428444 c 0,-0.1741145 0.141532,-0.3156462 0.315646,-0.3156462 h 0.407286 V 7.7337376 h -0.407286 a 0.50910679,0.50910679 0 0 0 -0.509107,0.5091068 0.50910679,0.50910679 0 0 0 0.509107,0.5091068 h 0.407286 V 8.5584906 h -0.407286 c -0.174114,0 -0.315646,-0.1415317 -0.315646,-0.3156462 m 0.417467,0.1018213 h 0.814571 V 8.141023 H 17.318707 V 8.3446657 M 18.2351,7.7337376 H 17.827814 V 7.9271982 H 18.2351 c 0.174114,0 0.315646,0.1415317 0.315646,0.3156462 0,0.1741145 -0.141532,0.3156462 -0.315646,0.3156462 H 17.827814 V 8.7519512 H 18.2351 A 0.50910679,0.50910679 0 0 0 18.744207,8.2428444 0.50910679,0.50910679 0 0 0 18.2351,7.7337376 Z"
     id="path7633-6"
     style="fill:#aaaaaa;fill-opacity:1;stroke-width:0.101821" /><text
     xml:space="preserve"
     style="font-style:normal;font-variant:normal;font-weight:bold;font-stretch:normal;font-size:0.666668px;font-family:Verdana;-inkscape-font-specification:'Verdana Bold';fill:#241c1c;fill-opacity:1;stroke:#a0a0a0;stroke-width:0;stroke-dasharray:none;stroke-opacity:1"
     x="8.3383064"
     y="5.5576744"
     id="text11767"><tspan
       sodipodi:role="line"
       id="tspan11765"
       x="8.3383064"
       y="5.5576744">NFT Smart Contract</tspan></text><text
     xml:space="preserve"
     style="font-style:normal;font-variant:normal;font-weight:bold;font-stretch:normal;font-size:0.666668px;font-family:sans-serif;-inkscape-font-specification:'sans-serif Bold';white-space:pre;inline-size:9.02059;display:inline;fill:#241c1c;fill-opacity:1;stroke:#a0a0a0;stroke-width:0;stroke-dasharray:none;stroke-opacity:1"
     x="10.748884"
     y="32.193581"
     id="text11767-7-4"
     transform="translate(-3.1933565,-15.575538)"><tspan
       x="10.748884"
       y="32.193581"
       id="tspan19060"><tspan
         style="font-family:Verdana;-inkscape-font-specification:'Verdana Bold'"
         id="tspan19058">Metaverse/Social Media</tspan></tspan></text><rect
     style="fill:none;fill-opacity:1;stroke:#aaaaaa;stroke-width:0.2;stroke-dasharray:none;stroke-opacity:1"
     id="rect14572"
     width="5.1205549"
     height="4.9540329"
     x="7.7224627"
     y="13.75889"
     rx="0.47371927"
     ry="0.47371927"
     clip-path="url(#clipPath14576)"
     transform="translate(1.6982315,-7.2853438)" /><text
     xml:space="preserve"
     style="font-style:normal;font-variant:normal;font-weight:bold;font-stretch:normal;font-size:1.06667px;font-family:Verdana;-inkscape-font-specification:'Verdana Bold';fill:#241c1c;fill-opacity:1;stroke:none;stroke-width:0.2;stroke-dasharray:none;stroke-opacity:1"
     x="5.6739488"
     y="2.4562013"
     id="text14730"><tspan
       sodipodi:role="line"
       id="tspan14728"
       x="5.6739488"
       y="2.4562013"
       style="font-style:normal;font-variant:normal;font-weight:bold;font-stretch:normal;font-size:1.06667px;font-family:Verdana;-inkscape-font-specification:'Verdana Bold'">Ethereum Blockchain</tspan></text><path
     style="fill:#241c1c;fill-opacity:1;stroke:#800080;stroke-width:0.162671;stroke-dasharray:none;stroke-dashoffset:0;stroke-opacity:1;marker-end:url(#TriangleStart)"
     d="m 11.960165,11.281768 v 3.7868"
     id="path20511" /><path
     d="m 13.570985,17.9662 c 0.296075,0 0.533469,0.237394 0.533469,0.53347 v 0.800204 c 0,0.296077 -0.237394,0.533471 -0.533469,0.533471 h -0.594819 l -0.330752,-0.328084 c -0.200051,-0.205387 -0.469453,-0.31208 -0.754859,-0.31208 -0.285407,0 -0.552142,0.106693 -0.754861,0.31208 l -0.328086,0.328084 h -0.437446 c -0.296076,0 -0.5334712,-0.237394 -0.5334712,-0.533471 V 18.49967 c 0,-0.296076 0.2373952,-0.53347 0.5334712,-0.53347 h 3.200823 m 0,-0.53347 h -3.200823 a 1.0669399,1.0669399 0 0 0 -1.0669453,1.06694 v 0 H 9.0364796 v 0.800204 h 0.2667371 v 0 a 1.0669399,1.0669399 0 0 0 1.0669453,1.066941 h 0.66684 c 0.01067,-0.016 0.02401,-0.03201 0.477456,-0.485457 0.104026,-0.104028 0.240062,-0.154707 0.376097,-0.154707 0.138702,0 0.274737,0.05068 0.378763,0.154707 l 0.477455,0.485457 h 0.824212 a 1.0669399,1.0669399 0 0 0 1.06694,-1.066941 v 0 h 0.266734 V 18.49967 h -0.266734 v 0 a 1.0669399,1.0669399 0 0 0 -1.06694,-1.06694 z"
     id="path23435"
     style="fill:#800080;fill-opacity:1;stroke-width:0.266735" /><path
     d="m 9.0567576,20.388562 c -0.06515,0.02961 -0.1353699,0.04907 -0.208131,0.05838 0.074453,-0.04484 0.1319856,-0.11591 0.1590598,-0.201362 -0.070223,0.0423 -0.148061,0.07192 -0.2301288,0.08884 -0.066839,-0.07276 -0.1607513,-0.115064 -0.2673548,-0.115064 -0.198824,0 -0.3612675,0.162443 -0.3612675,0.36296 0,0.02877 0.00339,0.05669 0.00931,0.08291 -0.3011972,-0.01523 -0.5693981,-0.159906 -0.7479167,-0.379036 -0.031304,0.0533 -0.049071,0.115911 -0.049071,0.181903 0,0.126063 0.063455,0.237743 0.1615974,0.301197 -0.06007,0 -0.1159101,-0.01692 -0.1649816,-0.0423 0,0 0,0 0,0.0026 0,0.175981 0.1252168,0.323195 0.2910444,0.356192 -0.030458,0.0085 -0.062608,0.01269 -0.095605,0.01269 -0.022844,0 -0.045687,-0.0026 -0.067685,-0.0068 0.045687,0.142984 0.1785186,0.249588 0.3384238,0.252126 -0.1235247,0.09814 -0.2800457,0.155675 -0.4509497,0.155675 -0.028766,0 -0.057532,-0.0017 -0.086298,-0.0051 0.1607513,0.103219 0.3519608,0.16329 0.5567072,0.16329 0.6666949,0 1.0330387,-0.553323 1.0330387,-1.03304 0,-0.01608 0,-0.0313 -8.501e-4,-0.04738 0.071069,-0.05076 0.1319857,-0.115064 0.1810569,-0.188671 z"
     id="path25268"
     style="fill:#aaaaaa;fill-opacity:1;stroke-width:0.0846062" /><path
     d="m 15.501982,20.072342 h 0.68045 c 0.25922,0 0.469836,0.210615 0.469836,0.469835 v 0.68045 a 0.46983513,0.46983513 0 0 1 -0.469836,0.469836 h -0.68045 c -0.25922,0 -0.469835,-0.210616 -0.469835,-0.469836 v -0.68045 a 0.46983513,0.46983513 0 0 1 0.469835,-0.469835 m -0.01621,0.162012 a 0.2916218,0.2916218 0 0 0 -0.291622,0.291622 v 0.712853 c 0,0.161202 0.13042,0.291622 0.291622,0.291622 h 0.712854 a 0.2916218,0.2916218 0 0 0 0.291627,-0.291622 v -0.712853 c 0,-0.161202 -0.13042,-0.291622 -0.291622,-0.291622 h -0.712854 m 0.781708,0.121509 a 0.10125757,0.10125757 0 0 1 0.101258,0.101257 0.10125757,0.10125757 0 0 1 -0.101258,0.101258 0.10125757,0.10125757 0 0 1 -0.101257,-0.101258 0.10125757,0.10125757 0 0 1 0.101257,-0.101257 m -0.425282,0.12151 a 0.40503028,0.40503028 0 0 1 0.405031,0.405029 0.40503028,0.40503028 0 0 1 -0.405031,0.405031 0.40503028,0.40503028 0 0 1 -0.405029,-0.405031 0.40503028,0.40503028 0 0 1 0.405029,-0.405029 m 0,0.162011 a 0.24301817,0.24301817 0 0 0 -0.243017,0.243018 0.24301817,0.24301817 0 0 0 0.243017,0.243019 0.24301817,0.24301817 0 0 0 0.243019,-0.243019 0.24301817,0.24301817 0 0 0 -0.243019,-0.243018 z"
     id="path26063"
     style="fill:#aaaaaa;fill-opacity:1;stroke-width:0.0810061" /><path
     d="m 12.708726,10.024239 c 0.249361,0 0.452546,-0.2031836 0.452546,-0.4525462 0,-0.2493622 -0.203185,-0.4525463 -0.452546,-0.4525463 -0.251209,0 -0.452546,0.2031841 -0.452546,0.4525463 0,0.2493626 0.201337,0.4525462 0.452546,0.4525462 m 0.960506,-0.3269417 0.273374,0.2142672 c 0.02402,0.02032 0.0314,0.053565 0.01477,0.08312 l -0.258598,0.4470045 c -0.01662,0.02771 -0.04802,0.03879 -0.07942,0.02771 l -0.3214,-0.129299 c -0.0665,0.05172 -0.140382,0.0942 -0.217961,0.127452 l -0.04988,0.341718 c -0.0037,0.03141 -0.0314,0.05541 -0.0628,0.05541 h -0.517195 c -0.03325,0 -0.05911,-0.02401 -0.06465,-0.05541 l -0.04803,-0.341718 c -0.07942,-0.03325 -0.151464,-0.07573 -0.21796,-0.127452 l -0.323249,0.129299 c -0.02771,0.01108 -0.0628,0 -0.07758,-0.02771 L 11.460055,9.9946848 c -0.01662,-0.029556 -0.0092,-0.0628 0.01477,-0.08312 l 0.273374,-0.2142675 -0.0092,-0.1256045 0.0092,-0.1274518 -0.273374,-0.2124197 c -0.02401,-0.020318 -0.03141,-0.055414 -0.01477,-0.08312 l 0.258598,-0.4470049 c 0.01477,-0.029554 0.04988,-0.040637 0.07758,-0.029554 l 0.323249,0.1311461 c 0.0665,-0.051719 0.138534,-0.096051 0.21796,-0.1274518 l 0.04803,-0.3435657 c 0.0055,-0.029554 0.0314,-0.053567 0.06465,-0.053567 h 0.517196 c 0.03139,0 0.05911,0.024013 0.0628,0.053567 l 0.04988,0.3435657 c 0.07758,0.031401 0.151465,0.075732 0.217961,0.1274518 l 0.321401,-0.131146 c 0.03139,-0.011083 0.0628,0 0.07942,0.029554 l 0.258598,0.4470048 c 0.01662,0.027707 0.0092,0.062802 -0.01477,0.08312 l -0.273375,0.2124197 0.0092,0.1274518 -0.0092,0.1256045 M 11.007521,8.1069205 c 0.1607,0 0.289999,-0.1292988 0.289999,-0.289999 0,-0.1607001 -0.129299,-0.2918462 -0.289999,-0.2918462 a 0.29184616,0.29184616 0 0 0 -0.291846,0.2918462 c 0,0.1607002 0.131146,0.289999 0.291846,0.289999 m 0.616941,-0.2087254 0.179172,0.1366875 c 0.01293,0.01293 0.01662,0.035095 0.0055,0.053567 L 11.642915,8.376601 c -0.0092,0.018471 -0.0314,0.02586 -0.04988,0.018471 l -0.206877,-0.08312 -0.136689,0.081273 -0.03509,0.2198083 c -0.0037,0.020318 -0.02032,0.035095 -0.04064,0.035095 h -0.332464 c -0.02216,0 -0.03879,-0.014777 -0.04248,-0.035095 l -0.02955,-0.2198079 -0.140382,-0.081274 -0.210573,0.083121 c -0.01662,0.00739 -0.03694,0 -0.04803,-0.018471 L 10.20402,8.0884493 c -0.01108,-0.018471 -0.0055,-0.040637 0.0092,-0.053566 l 0.175478,-0.1366875 -0.0055,-0.081273 0.0055,-0.081273 -0.175478,-0.1366874 c -0.01478,-0.01293 -0.02032,-0.035095 -0.0092,-0.053567 L 10.370262,7.257242 c 0.01108,-0.018471 0.0314,-0.02586 0.04803,-0.018471 l 0.208725,0.083121 0.142229,-0.081273 0.02955,-0.2198082 c 0.0037,-0.020318 0.02032,-0.035095 0.04248,-0.035095 h 0.332483 c 0.02032,0 0.03694,0.014777 0.04064,0.035095 l 0.03509,0.2198082 0.136688,0.081273 0.206878,-0.083121 c 0.01847,-0.00739 0.04064,0 0.04988,0.018471 l 0.166241,0.288152 c 0.01109,0.018471 0.0074,0.040637 -0.0055,0.053566 l -0.179171,0.1366875 0.0055,0.081273 z"
     id="path35408"
     style="fill:#800080;fill-opacity:1;stroke-width:0.184713" /></svg>
