<?xml version="1.0" encoding="UTF-8" standalone="no"?>
<svg
   version="1.1"
   width="24"
   height="28"
   viewBox="0 0 24 28"
   id="svg19"
   sodipodi:docname="minting.svg"
   xml:space="preserve"
   inkscape:version="1.2 (dc2aedaf03, 2022-05-15)"
   xmlns:inkscape="http://www.inkscape.org/namespaces/inkscape"
   xmlns:sodipodi="http://sodipodi.sourceforge.net/DTD/sodipodi-0.dtd"
   xmlns="http://www.w3.org/2000/svg"
   xmlns:svg="http://www.w3.org/2000/svg"><defs
     id="defs23"><marker
       style="overflow:visible"
       id="marker11559"
       refX="0"
       refY="0"
       orient="auto-start-reverse"
       inkscape:stockid="TriangleStart"
       markerWidth="2.3239999"
       markerHeight="2.6867051"
       viewBox="0 0 5.3244081 6.1553851"
       inkscape:isstock="true"
       inkscape:collect="always"
       preserveAspectRatio="xMidYMid"><path
         transform="scale(0.5)"
         style="fill:context-stroke;fill-rule:evenodd;stroke:context-stroke;stroke-width:1pt"
         d="M 5.77,0 -2.88,5 V -5 Z"
         id="path11557" /></marker><marker
       style="overflow:visible"
       id="TriangleStart"
       refX="0"
       refY="0"
       orient="auto-start-reverse"
       inkscape:stockid="TriangleStart"
       markerWidth="2.3239999"
       markerHeight="2.6867051"
       viewBox="0 0 5.3244081 6.1553851"
       inkscape:isstock="true"
       inkscape:collect="always"
       preserveAspectRatio="xMidYMid"><path
         transform="scale(0.5)"
         style="fill:context-stroke;fill-rule:evenodd;stroke:context-stroke;stroke-width:1pt"
         d="M 5.77,0 -2.88,5 V -5 Z"
         id="path135" /></marker><inkscape:path-effect
       effect="powerclip"
       id="path-effect9565"
       is_visible="true"
       lpeversion="1"
       inverse="true"
       flatten="false"
       hide_clip="false"
       message="Use fill-rule evenodd on &lt;b&gt;fill and stroke&lt;/b&gt; dialog if no flatten result after convert clip to paths." /><inkscape:path-effect
       effect="powerclip"
       id="path-effect9555"
       is_visible="true"
       lpeversion="1"
       inverse="true"
       flatten="false"
       hide_clip="false"
       message="Use fill-rule evenodd on &lt;b&gt;fill and stroke&lt;/b&gt; dialog if no flatten result after convert clip to paths." /><inkscape:path-effect
       effect="powermask"
       id="path-effect24761"
       is_visible="true"
       lpeversion="1"
       uri="#mask-powermask-path-effect24761"
       invert="false"
       hide_mask="false"
       background="true"
       background_color="#ffffffff" /><inkscape:path-effect
       effect="powerclip"
       id="path-effect18984"
       is_visible="true"
       lpeversion="1"
       inverse="true"
       flatten="false"
       hide_clip="false"
       message="Use fill-rule evenodd on &lt;b&gt;fill and stroke&lt;/b&gt; dialog if no flatten result after convert clip to paths." /><inkscape:path-effect
       effect="powerclip"
       id="path-effect18974"
       is_visible="true"
       lpeversion="1"
       inverse="true"
       flatten="false"
       hide_clip="false"
       message="Use fill-rule evenodd on &lt;b&gt;fill and stroke&lt;/b&gt; dialog if no flatten result after convert clip to paths." /><inkscape:path-effect
       effect="powerclip"
       id="path-effect18964"
       is_visible="true"
       lpeversion="1"
       inverse="true"
       flatten="false"
       hide_clip="false"
       message="Use fill-rule evenodd on &lt;b&gt;fill and stroke&lt;/b&gt; dialog if no flatten result after convert clip to paths." /><inkscape:path-effect
       effect="powerclip"
       id="path-effect16364"
       is_visible="true"
       lpeversion="1"
       inverse="true"
       flatten="false"
       hide_clip="false"
       message="Use fill-rule evenodd on &lt;b&gt;fill and stroke&lt;/b&gt; dialog if no flatten result after convert clip to paths." /><inkscape:perspective
       sodipodi:type="inkscape:persp3d"
       inkscape:vp_x="0 : 16 : 1"
       inkscape:vp_y="0 : 1000 : 0"
       inkscape:vp_z="24 : 16 : 1"
       inkscape:persp3d-origin="12 : 12 : 1"
       id="perspective461" /><mask
       maskUnits="userSpaceOnUse"
       id="mask605"><rect
         style="fill:#241c1c"
         id="rect607"
         width="7.8265395"
         height="12.863833"
         x="5.8074589"
         y="4.0381613" /></mask><mask
       maskUnits="userSpaceOnUse"
       id="mask3350"><rect
         style="fill:none;fill-opacity:1;stroke:#000000;stroke-width:0.2;stroke-dasharray:none;stroke-opacity:1"
         id="rect3352"
         width="3.7259324"
         height="10.220295"
         x="13.654814"
         y="13.280139"
         rx="0.5"
         ry="0.5" /></mask><mask
       maskUnits="userSpaceOnUse"
       id="mask3384"><rect
         style="fill:none;fill-opacity:1;stroke:#000000;stroke-width:0.2;stroke-dasharray:none;stroke-opacity:1"
         id="rect3386"
         width="3.8716393"
         height="10.324371"
         x="13.196877"
         y="13.051171"
         rx="2.7755576e-17"
         ry="2.7755576e-17" /></mask><mask
       maskUnits="userSpaceOnUse"
       id="mask4242"><rect
         style="fill:#241c1c;fill-opacity:1;stroke:#cb0d0d;stroke-width:0;stroke-dasharray:none;stroke-opacity:1"
         id="rect4244"
         width="3.7259324"
         height="10.220295"
         x="12.718126"
         y="13.196877"
         rx="2.7755576e-17"
         ry="2.7755576e-17" /></mask><clipPath
       clipPathUnits="userSpaceOnUse"
       id="clipPath4322"><rect
         style="fill:#241c1c;fill-opacity:1;stroke:#a0a0a0;stroke-width:0;stroke-dasharray:none;stroke-opacity:1"
         id="rect4324"
         width="3.3096271"
         height="9.8248053"
         x="12.843019"
         y="13.092801"
         rx="2.7755576e-17"
         ry="2.7755576e-17" /></clipPath><clipPath
       clipPathUnits="userSpaceOnUse"
       id="clipPath4322-9"><rect
         style="fill:#241c1c;fill-opacity:1;stroke:#a0a0a0;stroke-width:0;stroke-dasharray:none;stroke-opacity:1"
         id="rect4324-4"
         width="3.3096271"
         height="9.8248053"
         x="12.843019"
         y="13.092801"
         rx="2.7755576e-17"
         ry="2.7755576e-17" /></clipPath><clipPath
       clipPathUnits="userSpaceOnUse"
       id="clipPath14576"><rect
         style="fill:none;fill-opacity:1;stroke:#000000;stroke-width:0.270765;stroke-dasharray:none;stroke-opacity:1"
         id="rect14578"
         width="7.8182201"
         height="4.5040832"
         x="6.4672995"
         y="-17.520039"
         transform="scale(1,-1)" /></clipPath><clipPath
       clipPathUnits="userSpaceOnUse"
       id="clipPath16354"><rect
         style="display:block;fill:#cf3b0a;fill-opacity:1;stroke:#000000;stroke-width:0.2;stroke-dasharray:none;stroke-opacity:1"
         id="rect16356"
         width="1.18647"
         height="1.0615785"
         x="10.449263"
         y="11.927147"
         rx="2.7755576e-17"
         ry="2.7755576e-17" /></clipPath><clipPath
       clipPathUnits="userSpaceOnUse"
       id="clipPath18960"><rect
         style="display:none;fill:#241c1c;fill-opacity:1;stroke:none;stroke-width:0.193729;stroke-dasharray:0.193729, 0.193729;stroke-dashoffset:0;stroke-opacity:1"
         id="rect18962"
         width="1.5819602"
         height="1.2072853"
         x="10.324371"
         y="13.717259"
         d="m 10.324371,13.717259 h 1.581961 v 1.207286 h -1.581961 z" /></clipPath><clipPath
       clipPathUnits="userSpaceOnUse"
       id="clipPath18970"><rect
         style="display:none;fill:#241c1c;fill-opacity:1;stroke:none;stroke-width:0.2;stroke-dasharray:0.2, 0.2;stroke-dashoffset:0;stroke-opacity:1"
         id="rect18972"
         width="0.81179529"
         height="0.89505637"
         x="9.9288816"
         y="13.821336"
         d="m 9.9288816,13.821336 h 0.8117954 v 0.895056 H 9.9288816 Z" /></clipPath><clipPath
       clipPathUnits="userSpaceOnUse"
       id="clipPath18980"><rect
         style="display:block;fill:#241c1c;fill-opacity:1;stroke:none;stroke-width:0.153685;stroke-dasharray:0.153685, 0.153685;stroke-dashoffset:0;stroke-opacity:1"
         id="rect18982"
         width="1.2905463"
         height="1.1656548"
         x="10.428448"
         y="13.654814" /></clipPath><mask
       maskUnits="userSpaceOnUse"
       id="mask-powermask-path-effect24761"><rect
         style="fill:#241c1c;fill-opacity:1;stroke:#000000;stroke-width:0.457669;stroke-dasharray:none;stroke-dashoffset:0;stroke-opacity:1"
         id="rect24747"
         width="1.0328764"
         height="9.8585491"
         x="10.494837"
         y="14.116693" /></mask><marker
       style="overflow:visible"
       id="TriangleStart-5"
       refX="0"
       refY="0"
       orient="auto-start-reverse"
       inkscape:stockid="TriangleStart"
       markerWidth="2.3239999"
       markerHeight="2.6867051"
       viewBox="0 0 5.3244081 6.1553851"
       inkscape:isstock="true"
       inkscape:collect="always"
       preserveAspectRatio="xMidYMid"><path
         transform="scale(0.5)"
         style="fill:context-stroke;fill-rule:evenodd;stroke:context-stroke;stroke-width:1pt"
         d="M 5.77,0 -2.88,5 V -5 Z"
         id="path135-3" /></marker></defs><sodipodi:namedview
     id="namedview21"
     pagecolor="#ffffff"
     bordercolor="#000000"
     borderopacity="0.25"
     inkscape:showpageshadow="2"
     inkscape:pageopacity="0.0"
     inkscape:pagecheckerboard="0"
     inkscape:deskcolor="#d1d1d1"
     showgrid="false"
     inkscape:lockguides="true"
     showguides="true"
     inkscape:zoom="32.238803"
     inkscape:cx="8.1268526"
     inkscape:cy="15.059492"
     inkscape:window-width="1693"
     inkscape:window-height="1356"
     inkscape:window-x="1707"
     inkscape:window-y="5"
     inkscape:window-maximized="0"
     inkscape:current-layer="svg19"><inkscape:grid
       type="xygrid"
       id="grid4689"
       spacingx="0.5"
       spacingy="0.5"
       originx="0"
       originy="0" /></sodipodi:namedview><path
     style="fill:none;stroke:#ffffff;stroke-width:0.159494;stroke-opacity:1"
     id="rect6973"
     width="12.669078"
     height="2.8664804"
     x="5.0689244"
     y="1.5693574"
     rx="0.42899999"
     ry="0.4092811"
     sodipodi:type="rect"
     d="M 5.4979244,1.5693574 H 17.309002 c 0.237666,0 0.429,0.1825394 0.429,0.4092811 v 2.0479181 c 0,0.2267418 -0.191334,0.4092811 -0.429,0.4092811 H 5.4979244 c -0.237666,0 -0.429,-0.1825393 -0.429,-0.4092811 V 1.9786385 c 0,-0.2267417 0.191334,-0.4092811 0.429,-0.4092811 z" /><path
     d="m 7.1419916,3.2955268 c 0,0.031365 -0.017333,0.058603 -0.043746,0.072635 L 6.4461822,3.734638 c -0.013207,0.0099 -0.029714,0.014857 -0.047047,0.014857 -0.017333,0 -0.033841,-0.00495 -0.047047,-0.014857 L 5.7000232,3.3681618 C 5.6736105,3.35413 5.6562772,3.3268919 5.6562772,3.2955268 V 2.5526696 c 0,-0.031365 0.017333,-0.058603 0.043746,-0.072635 L 6.3520865,2.1135585 c 0.013207,-0.0099 0.029714,-0.014857 0.047047,-0.014857 0.017333,0 0.033841,0.00495 0.047047,0.014857 L 7.098244,2.4800347 c 0.026413,0.014032 0.043746,0.04127 0.043746,0.072635 V 3.2955268 M 6.3991343,2.2761617 5.9071978,2.5526696 6.3991343,2.8291776 6.8910709,2.5526696 6.3991343,2.2761617 M 5.8213566,3.2468284 6.3165947,3.5258126 V 2.9719713 L 5.8213566,2.6938125 v 0.5530159 m 1.1555556,0 V 2.6938125 L 6.4816741,2.9719713 v 0.5538413 z"
     id="path8176"
     style="stroke-width:0.08254;fill:#2ad4ff" /><path
     d="m 13.132468,3.3151515 c 0,0.031365 -0.01733,0.058603 -0.04375,0.072635 l -0.652064,0.3664762 c -0.01321,0.0099 -0.02971,0.014857 -0.04705,0.014857 -0.01733,0 -0.03384,-0.00495 -0.04705,-0.014857 L 11.690499,3.3877865 c -0.02641,-0.014032 -0.04375,-0.04127 -0.04375,-0.072635 V 2.5722943 c 0,-0.031365 0.01733,-0.058603 0.04375,-0.072635 l 0.652064,-0.3664761 c 0.01321,-0.0099 0.02971,-0.014857 0.04705,-0.014857 0.01733,0 0.03384,0.00495 0.04705,0.014857 l 0.652064,0.3664762 c 0.02641,0.014032 0.04375,0.04127 0.04375,0.072635 V 3.3151515 M 12.38961,2.2957864 11.897674,2.5722943 12.38961,2.8488023 12.881547,2.5722943 12.38961,2.2957864 m -0.577777,0.9706667 0.495238,0.2789842 V 2.991596 L 11.811833,2.7134372 v 0.5530159 m 1.155555,0 V 2.7134372 L 12.47215,2.991596 v 0.5538413 z"
     id="path8176-1"
     style="stroke-width:0.08254;fill:#2ad4ff" /><path
     d="m 17.077056,3.374026 c 0,0.031365 -0.01733,0.058603 -0.04375,0.072635 l -0.652064,0.3664762 c -0.01321,0.0099 -0.02971,0.014857 -0.04705,0.014857 -0.01733,0 -0.03384,-0.00495 -0.04705,-0.014857 L 15.635087,3.446661 c -0.02641,-0.014032 -0.04375,-0.04127 -0.04375,-0.072635 V 2.6311688 c 0,-0.031365 0.01733,-0.058603 0.04375,-0.072635 L 16.28715,2.1920577 c 0.01321,-0.0099 0.02971,-0.014857 0.04705,-0.014857 0.01733,0 0.03384,0.00495 0.04705,0.014857 l 0.652064,0.3664762 c 0.02641,0.014032 0.04375,0.04127 0.04375,0.072635 V 3.374026 m -0.742866,-1.0193651 -0.491936,0.2765079 0.491936,0.276508 0.491937,-0.276508 -0.491937,-0.2765079 m -0.577777,0.9706667 0.495238,0.2789842 V 3.0504705 L 15.756421,2.7723117 v 0.5530159 m 1.155555,0 V 2.7723117 l -0.495238,0.2781588 v 0.5538413 z"
     id="path8176-1-7"
     style="stroke-width:0.08254;fill:#2ad4ff" /><path
     d="m 15.104762,3.3445888 c 0,0.031365 -0.01733,0.058603 -0.04375,0.072635 L 14.408948,3.7837 c -0.01321,0.0099 -0.02971,0.014857 -0.04705,0.014857 -0.01733,0 -0.03384,-0.00495 -0.04705,-0.014857 L 13.662794,3.4172238 c -0.02641,-0.014032 -0.04375,-0.04127 -0.04375,-0.072635 V 2.6017316 c 0,-0.031365 0.01733,-0.058603 0.04375,-0.072635 l 0.652063,-0.3664761 c 0.01321,-0.0099 0.02971,-0.014857 0.04705,-0.014857 0.01733,0 0.03384,0.00495 0.04705,0.014857 l 0.652063,0.3664762 c 0.02641,0.014032 0.04375,0.04127 0.04375,0.072635 v 0.7428571 m -0.742866,-1.0193651 -0.491936,0.2765079 0.491936,0.276508 0.491937,-0.276508 -0.491937,-0.2765079 m -0.577777,0.9706667 0.495238,0.2789842 V 3.0210333 L 13.784127,2.7428745 v 0.5530159 m 1.155555,0 V 2.7428745 l -0.495238,0.2781588 v 0.5538413 z"
     id="path8176-1-72"
     style="stroke-width:0.08254;fill:#2ad4ff" /><path
     d="m 11.160173,3.3151515 c 0,0.031365 -0.01733,0.058603 -0.04375,0.072635 l -0.652063,0.3664762 c -0.01321,0.0099 -0.02971,0.014857 -0.04705,0.014857 -0.01733,0 -0.03384,-0.00495 -0.04705,-0.014857 L 9.7182046,3.3877865 c -0.026413,-0.014032 -0.043746,-0.04127 -0.043746,-0.072635 V 2.5722943 c 0,-0.031365 0.017333,-0.058603 0.043746,-0.072635 L 10.370268,2.1331832 c 0.01321,-0.0099 0.02971,-0.014857 0.04705,-0.014857 0.01733,0 0.03384,0.00495 0.04705,0.014857 l 0.652063,0.3664762 c 0.02641,0.014032 0.04375,0.04127 0.04375,0.072635 V 3.3151515 M 10.417316,2.2957864 9.9253792,2.5722943 10.417316,2.8488023 10.909252,2.5722943 10.417316,2.2957864 M 9.839538,3.2664531 10.334776,3.5454373 V 2.991596 L 9.839538,2.7134372 v 0.5530159 m 1.155556,0 V 2.7134372 L 10.499856,2.991596 v 0.5538413 z"
     id="path8176-8"
     style="stroke-width:0.08254;fill:#2ad4ff" /><path
     d="m 9.1290043,3.3151515 c 0,0.031365 -0.017333,0.058603 -0.043746,0.072635 L 8.4331949,3.7542627 c -0.013207,0.0099 -0.029714,0.014857 -0.047047,0.014857 -0.017333,0 -0.033841,-0.00495 -0.047047,-0.014857 L 7.6870359,3.3877865 c -0.026413,-0.014032 -0.043746,-0.04127 -0.043746,-0.072635 V 2.5722943 c 0,-0.031365 0.017333,-0.058603 0.043746,-0.072635 L 8.3390992,2.1331832 c 0.013207,-0.0099 0.029714,-0.014857 0.047047,-0.014857 0.017333,0 0.033841,0.00495 0.047047,0.014857 l 0.6520635,0.3664762 c 0.026413,0.014032 0.043746,0.04127 0.043746,0.072635 V 3.3151515 M 8.386147,2.2957864 7.8942105,2.5722943 8.386147,2.8488023 8.8780836,2.5722943 8.386147,2.2957864 M 7.8083693,3.2664531 8.3036074,3.5454373 V 2.991596 L 7.8083693,2.7134372 v 0.5530159 m 1.1555556,0 V 2.7134372 L 8.4686868,2.991596 v 0.5538413 z"
     id="path8176-8-4"
     style="stroke-width:0.08254;fill:#2ad4ff" /><rect
     style="display:none;fill:none;stroke:#000000;stroke-width:0.2;stroke-opacity:1"
     id="rect9553"
     width="15.101298"
     height="2.296104"
     x="3.7939394"
     y="0.82424241" /><rect
     style="fill:none;stroke:#ffffff;stroke-width:0.159494;stroke-opacity:1"
     id="rect6973-4"
     width="12.669078"
     height="2.8664804"
     x="5.0542059"
     y="6.0438156"
     rx="0.42899999"
     ry="0.4092811" /><path
     d="m 7.1272732,7.7699852 c 0,0.031365 -0.01733,0.058603 -0.04375,0.072635 l -0.652064,0.3664762 c -0.01321,0.0099 -0.02971,0.014857 -0.04705,0.014857 -0.01733,0 -0.03384,-0.00495 -0.04705,-0.014857 L 5.6853042,7.8426202 c -0.02641,-0.014032 -0.04375,-0.04127 -0.04375,-0.072635 V 7.027128 c 0,-0.031365 0.01733,-0.058603 0.04375,-0.072635 l 0.652063,-0.3664761 c 0.01321,-0.0099 0.02971,-0.014857 0.04705,-0.014857 0.01733,0 0.03384,0.00495 0.04705,0.014857 l 0.652064,0.3664762 c 0.02641,0.014032 0.04375,0.04127 0.04375,0.072635 V 7.7699852 M 6.3844152,6.7506201 5.8924792,7.027128 6.3844152,7.303636 6.8763522,7.027128 6.3844152,6.7506201 M 5.8066382,7.7212868 6.3018762,8.000271 V 7.4464297 L 5.8066382,7.1682709 v 0.5530159 m 1.155555,0 V 7.1682709 L 6.4669552,7.4464297 V 8.000271 Z"
     id="path8176-9"
     style="fill:#ffffff;fill-opacity:1;stroke-width:0.08254" /><path
     d="m 13.117749,7.7896099 c 0,0.031365 -0.01733,0.058603 -0.04375,0.072635 l -0.652064,0.3664762 c -0.01321,0.0099 -0.02971,0.014857 -0.04705,0.014857 -0.01733,0 -0.03384,-0.00495 -0.04705,-0.014857 L 11.67578,7.8622449 c -0.02641,-0.014032 -0.04375,-0.04127 -0.04375,-0.072635 V 7.0467527 c 0,-0.031365 0.01733,-0.058603 0.04375,-0.072635 l 0.652064,-0.3664761 c 0.01321,-0.0099 0.02971,-0.014857 0.04705,-0.014857 0.01733,0 0.03384,0.00495 0.04705,0.014857 l 0.652064,0.3664762 c 0.02641,0.014032 0.04375,0.04127 0.04375,0.072635 v 0.7428571 m -0.742867,-1.0193651 -0.491936,0.2765079 0.491936,0.276508 0.491937,-0.276508 -0.491937,-0.2765079 m -0.577777,0.9706667 0.495238,0.2789842 V 7.4660544 L 11.797114,7.1878956 v 0.5530159 m 1.155555,0 V 7.1878956 l -0.495238,0.2781588 v 0.5538413 z"
     id="path8176-1-6"
     style="fill:#ffffff;fill-opacity:1;stroke-width:0.08254" /><path
     d="m 17.062337,7.8484844 c 0,0.031365 -0.01733,0.058603 -0.04375,0.072635 l -0.652064,0.3664762 c -0.01321,0.0099 -0.02971,0.014857 -0.04705,0.014857 -0.01733,0 -0.03384,-0.00495 -0.04705,-0.014857 L 15.620368,7.9211194 c -0.02641,-0.014032 -0.04375,-0.04127 -0.04375,-0.072635 V 7.1056272 c 0,-0.031365 0.01733,-0.058603 0.04375,-0.072635 l 0.652063,-0.3664761 c 0.01321,-0.0099 0.02971,-0.014857 0.04705,-0.014857 0.01733,0 0.03384,0.00495 0.04705,0.014857 l 0.652064,0.3664762 c 0.02641,0.014032 0.04375,0.04127 0.04375,0.072635 v 0.7428571 m -0.742866,-1.0193651 -0.491936,0.2765079 0.491936,0.276508 0.491937,-0.276508 -0.491937,-0.2765079 M 15.741702,7.799786 16.23694,8.0787702 V 7.5249289 L 15.741702,7.2467701 V 7.799786 m 1.155555,0 V 7.2467701 l -0.495238,0.2781588 v 0.5538413 z"
     id="path8176-1-7-6"
     style="fill:#ffffff;fill-opacity:1;stroke-width:0.08254" /><path
     d="m 15.090043,7.8190472 c 0,0.031365 -0.01733,0.058603 -0.04375,0.072635 l -0.652064,0.3664762 c -0.01321,0.0099 -0.02971,0.014857 -0.04705,0.014857 -0.01733,0 -0.03384,-0.00495 -0.04705,-0.014857 L 13.648075,7.8916822 c -0.02641,-0.014032 -0.04375,-0.04127 -0.04375,-0.072635 V 7.07619 c 0,-0.031365 0.01733,-0.058603 0.04375,-0.072635 l 0.652063,-0.3664761 c 0.01321,-0.0099 0.02971,-0.014857 0.04705,-0.014857 0.01733,0 0.03384,0.00495 0.04705,0.014857 l 0.652063,0.3664762 c 0.02641,0.014032 0.04375,0.04127 0.04375,0.072635 V 7.8190472 M 14.347185,6.7996821 13.855249,7.07619 14.347185,7.352698 14.839122,7.07619 14.347185,6.7996821 M 13.769408,7.7703488 14.264646,8.049333 V 7.4954917 L 13.769408,7.2173329 v 0.5530159 m 1.155555,0 V 7.2173329 L 14.429725,7.4954917 V 8.049333 Z"
     id="path8176-1-72-9"
     style="fill:#ffffff;fill-opacity:1;stroke-width:0.08254" /><path
     d="m 11.145454,7.7896099 c 0,0.031365 -0.01733,0.058603 -0.04375,0.072635 l -0.652063,0.3664762 c -0.01321,0.0099 -0.02971,0.014857 -0.04705,0.014857 -0.01733,0 -0.03384,-0.00495 -0.04705,-0.014857 L 9.7034862,7.8622449 c -0.02641,-0.014032 -0.04375,-0.04127 -0.04375,-0.072635 V 7.0467527 c 0,-0.031365 0.01733,-0.058603 0.04375,-0.072635 L 10.355549,6.6076416 c 0.01321,-0.0099 0.02971,-0.014857 0.04705,-0.014857 0.01733,0 0.03384,0.00495 0.04705,0.014857 l 0.652063,0.3664762 c 0.02641,0.014032 0.04375,0.04127 0.04375,0.072635 V 7.7896099 M 10.402597,6.7702448 9.9106602,7.0467527 10.402597,7.3232607 10.894533,7.0467527 10.402597,6.7702448 M 9.8248192,7.7409115 10.320057,8.0198957 V 7.4660544 L 9.8248192,7.1878956 v 0.5530159 m 1.1555558,0 V 7.1878956 l -0.495238,0.2781588 v 0.5538413 z"
     id="path8176-8-40"
     style="fill:#ffffff;fill-opacity:1;stroke-width:0.08254" /><path
     d="m 9.1142852,7.7896099 c 0,0.031365 -0.01733,0.058603 -0.04375,0.072635 l -0.652063,0.3664762 c -0.01321,0.0099 -0.02971,0.014857 -0.04705,0.014857 -0.01733,0 -0.03384,-0.00495 -0.04705,-0.014857 L 7.6723172,7.8622449 c -0.02641,-0.014032 -0.04375,-0.04127 -0.04375,-0.072635 V 7.0467527 c 0,-0.031365 0.01733,-0.058603 0.04375,-0.072635 l 0.652063,-0.3664761 c 0.01321,-0.0099 0.02971,-0.014857 0.04705,-0.014857 0.01733,0 0.03384,0.00495 0.04705,0.014857 l 0.652064,0.3664762 c 0.02641,0.014032 0.04375,0.04127 0.04375,0.072635 v 0.7428571 m -0.742856,-1.0193651 -0.491937,0.2765079 0.491937,0.276508 0.491937,-0.276508 -0.491937,-0.2765079 m -0.577778,0.9706667 0.495238,0.2789842 V 7.4660544 L 7.7936502,7.1878956 v 0.5530159 m 1.155556,0 V 7.1878956 l -0.495238,0.2781588 v 0.5538413 z"
     id="path8176-8-4-1"
     style="fill:#ffffff;fill-opacity:1;stroke-width:0.08254" /><path
     style="fill:none;stroke:#ffffff;stroke-width:0.159494;stroke-opacity:1"
     id="rect6973-4-7"
     width="12.669078"
     height="2.8664804"
     x="5.0542054"
     y="10.54425"
     rx="0.42899999"
     ry="0.4092811"
     sodipodi:type="rect"
     d="M 5.4832054,10.54425 H 17.294283 c 0.237666,0 0.429,0.182539 0.429,0.409281 v 2.047918 c 0,0.226742 -0.191334,0.409281 -0.429,0.409281 H 5.4832054 c -0.237666,0 -0.429,-0.182539 -0.429,-0.409281 v -2.047918 c 0,-0.226742 0.191334,-0.409281 0.429,-0.409281 z" /><path
     d="m 7.1272726,12.27042 c 0,0.03137 -0.017333,0.0586 -0.043746,0.07264 l -0.6520634,0.366476 c -0.013207,0.0099 -0.029714,0.01486 -0.047047,0.01486 -0.017333,0 -0.033841,-0.0049 -0.047047,-0.01486 l -0.652065,-0.366476 c -0.026413,-0.01403 -0.043746,-0.04127 -0.043746,-0.07264 v -0.742857 c 0,-0.03137 0.017333,-0.0586 0.043746,-0.07264 l 0.6520633,-0.366476 c 0.013207,-0.0099 0.029714,-0.01486 0.047047,-0.01486 0.017333,0 0.033841,0.005 0.047047,0.01486 l 0.6520635,0.366476 c 0.026413,0.01403 0.043746,0.04127 0.043746,0.07264 V 12.27042 M 6.3844153,11.251055 5.8924788,11.527563 6.3844153,11.804071 6.8763519,11.527563 6.3844153,11.251055 m -0.5777777,0.970666 0.4952381,0.278985 V 11.946864 L 5.8066376,11.668706 v 0.553015 m 1.1555556,0 v -0.553015 l -0.4952381,0.278158 v 0.553842 z"
     id="path8176-9-4"
     style="stroke-width:0.08254;fill:#2ad4ff" /><path
     d="m 13.117749,12.290045 c 0,0.03137 -0.01733,0.0586 -0.04375,0.07263 l -0.652064,0.366477 c -0.01321,0.0099 -0.02971,0.01486 -0.04705,0.01486 -0.01733,0 -0.03384,-0.005 -0.04705,-0.01486 L 11.67578,12.362679 c -0.02641,-0.01403 -0.04375,-0.04127 -0.04375,-0.07263 v -0.742858 c 0,-0.03136 0.01733,-0.0586 0.04375,-0.07264 l 0.652064,-0.366476 c 0.01321,-0.0099 0.02971,-0.01486 0.04705,-0.01486 0.01733,0 0.03384,0.005 0.04705,0.01486 l 0.652064,0.366476 c 0.02641,0.01403 0.04375,0.04127 0.04375,0.07264 v 0.742858 m -0.742856,-1.019366 -0.491936,0.276508 0.491936,0.276508 0.491937,-0.276508 -0.491937,-0.276508 m -0.577777,0.970667 0.495238,0.278984 V 11.966489 L 11.797114,11.68833 v 0.553016 m 1.155555,0 V 11.68833 l -0.495238,0.278159 v 0.553841 z"
     id="path8176-1-6-5"
     style="stroke-width:0.08254;fill:#2ad4ff" /><path
     d="m 17.062337,12.348919 c 0,0.03136 -0.01733,0.0586 -0.04375,0.07264 l -0.652064,0.366476 c -0.01321,0.0099 -0.02971,0.01486 -0.04705,0.01486 -0.01733,0 -0.03384,-0.005 -0.04705,-0.01486 l -0.652055,-0.366476 c -0.02641,-0.01403 -0.04375,-0.04127 -0.04375,-0.07264 v -0.742857 c 0,-0.03136 0.01733,-0.0586 0.04375,-0.07264 l 0.652063,-0.366476 c 0.01321,-0.0099 0.02971,-0.01486 0.04705,-0.01486 0.01733,0 0.03384,0.005 0.04705,0.01486 l 0.652064,0.366476 c 0.02641,0.01403 0.04375,0.04127 0.04375,0.07264 v 0.742857 m -0.742866,-1.019365 -0.491936,0.276508 0.491936,0.276508 0.491937,-0.276508 -0.491937,-0.276508 m -0.577777,0.970667 0.495238,0.278984 v -0.553842 l -0.495238,-0.278158 v 0.553016 m 1.155555,0 v -0.553016 l -0.495238,0.278158 v 0.553842 z"
     id="path8176-1-7-6-8"
     style="stroke-width:0.08254;fill:#2ad4ff" /><path
     d="m 15.090043,12.319482 c 0,0.03136 -0.01733,0.0586 -0.04375,0.07264 l -0.652064,0.366476 c -0.01321,0.0099 -0.02971,0.01486 -0.04705,0.01486 -0.01733,0 -0.03384,-0.005 -0.04705,-0.01486 l -0.652054,-0.366476 c -0.02641,-0.01403 -0.04375,-0.04127 -0.04375,-0.07264 v -0.742857 c 0,-0.03136 0.01733,-0.0586 0.04375,-0.07264 l 0.652063,-0.366476 c 0.01321,-0.0099 0.02971,-0.01486 0.04705,-0.01486 0.01733,0 0.03384,0.0049 0.04705,0.01486 l 0.652063,0.366476 c 0.02641,0.01403 0.04375,0.04127 0.04375,0.07264 v 0.742857 m -0.742866,-1.019365 -0.491936,0.276508 0.491936,0.276508 0.491937,-0.276508 -0.491937,-0.276508 m -0.577777,0.970666 0.495238,0.278985 v -0.553842 l -0.495238,-0.278158 v 0.553015 m 1.155555,0 v -0.553015 l -0.495238,0.278158 v 0.553842 z"
     id="path8176-1-72-9-5"
     style="stroke-width:0.08254;fill:#2ad4ff" /><path
     d="m 11.145454,12.290045 c 0,0.03137 -0.01733,0.0586 -0.04375,0.07263 l -0.652063,0.366477 c -0.01321,0.0099 -0.02971,0.01486 -0.04705,0.01486 -0.01733,0 -0.03384,-0.005 -0.04705,-0.01486 L 9.7034856,12.362679 c -0.026413,-0.01403 -0.043746,-0.04127 -0.043746,-0.07263 v -0.742858 c 0,-0.03136 0.017333,-0.0586 0.043746,-0.07264 l 0.6520634,-0.366476 c 0.01321,-0.0099 0.02971,-0.01486 0.04705,-0.01486 0.01733,0 0.03384,0.005 0.04705,0.01486 l 0.652063,0.366476 c 0.02641,0.01403 0.04375,0.04127 0.04375,0.07264 v 0.742858 m -0.742855,-1.019366 -0.4919368,0.276508 0.4919368,0.276508 0.491936,-0.276508 -0.491936,-0.276508 m -0.577778,0.970667 0.495238,0.278984 V 11.966489 L 9.824819,11.68833 v 0.553016 m 1.155556,0 V 11.68833 l -0.495239,0.278159 v 0.553841 z"
     id="path8176-8-40-3"
     style="stroke-width:0.08254;fill:#2ad4ff" /><path
     d="m 9.1142853,12.290045 c 0,0.03137 -0.017333,0.0586 -0.043746,0.07263 l -0.6520634,0.366477 c -0.013207,0.0099 -0.029714,0.01486 -0.047047,0.01486 -0.017333,0 -0.033841,-0.005 -0.047047,-0.01486 l -0.652065,-0.366477 c -0.026413,-0.01403 -0.043746,-0.04127 -0.043746,-0.07263 v -0.742858 c 0,-0.03136 0.017333,-0.0586 0.043746,-0.07264 l 0.6520633,-0.366476 c 0.013207,-0.0099 0.029714,-0.01486 0.047047,-0.01486 0.017333,0 0.033841,0.005 0.047047,0.01486 l 0.6520635,0.366476 c 0.026413,0.01403 0.043746,0.04127 0.043746,0.07264 v 0.742858 M 8.371428,11.270679 7.8794915,11.547187 8.371428,11.823695 8.8633646,11.547187 8.371428,11.270679 M 7.7936503,12.241346 8.2888884,12.52033 V 11.966489 L 7.7936503,11.68833 v 0.553016 m 1.1555556,0 V 11.68833 l -0.4952381,0.278159 v 0.553841 z"
     id="path8176-8-4-1-2"
     style="stroke-width:0.08254;fill:#2ad4ff" /><rect
     style="display:none;fill:none;stroke:#000000;stroke-width:0.2;stroke-opacity:1"
     id="rect9563"
     width="15.395671"
     height="1.4718615"
     x="3.8822508"
     y="12.128139" /><path
     style="fill:#2ad4ff;stroke:#5ad0fa;stroke-width:0.2;stroke-opacity:1;marker-end:url(#TriangleStart)"
     d="m 11.359307,4.7099567 0.02944,0.8831169"
     id="path10349" /><path
     style="fill:#2ad4ff;stroke:#5ad0fa;stroke-width:0.2;stroke-opacity:1;marker-end:url(#TriangleStart-5)"
     d="m 11.393902,9.1489187 0.02944,0.8831163"
     id="path10349-0" /><path
     style="fill:none;fill-opacity:1;stroke:#4ed1ff;stroke-width:0.2;stroke-opacity:1;marker-start:url(#marker11559);marker-end:url(#marker11559)"
     d="m 4.7653678,14.716889 0.117749,9.331602 12.9229452,0.02944"
     id="path11543" /><path
     style="fill:none;fill-opacity:1;stroke:#fefdff;stroke-width:0.2;stroke-opacity:1"
     d="m 5.5896108,14.864075 c 0.603838,8.008806 6.0070232,8.103147 11.6571442,8.389611"
     id="path12617"
     sodipodi:nodetypes="cc" /><text
     xml:space="preserve"
     style="font-style:normal;font-variant:normal;font-weight:bold;font-stretch:normal;font-size:0.66667px;font-family:Verdana;-inkscape-font-specification:'Verdana Bold';fill:#ffffff;fill-opacity:1;stroke:none;stroke-width:0.2;stroke-opacity:1"
     x="13.583805"
     y="25.360323"
     id="text13917"><tspan
       sodipodi:role="line"
       id="tspan13915"
       x="13.583805"
       y="25.360323">max 6 hours</tspan></text><text
     xml:space="preserve"
     style="font-style:normal;font-variant:normal;font-weight:bold;font-stretch:normal;font-size:0.66667px;font-family:Verdana;-inkscape-font-specification:'Verdana Bold';fill:#ffffff;fill-opacity:1;stroke:none;stroke-width:0.2;stroke-opacity:1"
     x="8.919838"
     y="20.540892"
     id="text14505"><tspan
       sodipodi:role="line"
       id="tspan14503"
       x="8.919838"
       y="20.540892">price in ETH</tspan></text></svg>
