<?xml version="1.0" encoding="UTF-8" standalone="no"?>
<svg
   version="1.1"
   width="24"
   height="36"
   viewBox="0 0 24 36"
   id="svg19"
   sodipodi:docname="nft-ipfs.svg"
   xml:space="preserve"
   inkscape:version="1.2 (dc2aedaf03, 2022-05-15)"
   xmlns:inkscape="http://www.inkscape.org/namespaces/inkscape"
   xmlns:sodipodi="http://sodipodi.sourceforge.net/DTD/sodipodi-0.dtd"
   xmlns="http://www.w3.org/2000/svg"
   xmlns:svg="http://www.w3.org/2000/svg"><defs
     id="defs23"><inkscape:path-effect
       effect="powermask"
       id="path-effect24761"
       is_visible="true"
       lpeversion="1"
       uri="#mask-powermask-path-effect24761"
       invert="false"
       hide_mask="false"
       background="true"
       background_color="#ffffffff" /><marker
       style="overflow:visible"
       id="TriangleStart"
       refX="0"
       refY="0"
       orient="auto-start-reverse"
       inkscape:stockid="TriangleStart"
       markerWidth="2.729075"
       markerHeight="3.155"
       viewBox="0 0 5.3244081 6.1553851"
       inkscape:isstock="true"
       inkscape:collect="always"
       preserveAspectRatio="xMidYMid"><path
         transform="scale(0.5)"
         style="fill:context-stroke;fill-rule:evenodd;stroke:context-stroke;stroke-width:1pt"
         d="M 5.77,0 -2.88,5 V -5 Z"
         id="path135" /></marker><inkscape:path-effect
       effect="powerclip"
       id="path-effect18984"
       is_visible="true"
       lpeversion="1"
       inverse="true"
       flatten="false"
       hide_clip="false"
       message="Use fill-rule evenodd on &lt;b&gt;fill and stroke&lt;/b&gt; dialog if no flatten result after convert clip to paths." /><inkscape:path-effect
       effect="powerclip"
       id="path-effect18974"
       is_visible="true"
       lpeversion="1"
       inverse="true"
       flatten="false"
       hide_clip="false"
       message="Use fill-rule evenodd on &lt;b&gt;fill and stroke&lt;/b&gt; dialog if no flatten result after convert clip to paths." /><inkscape:path-effect
       effect="powerclip"
       id="path-effect18964"
       is_visible="true"
       lpeversion="1"
       inverse="true"
       flatten="false"
       hide_clip="false"
       message="Use fill-rule evenodd on &lt;b&gt;fill and stroke&lt;/b&gt; dialog if no flatten result after convert clip to paths." /><inkscape:path-effect
       effect="powerclip"
       id="path-effect16364"
       is_visible="true"
       lpeversion="1"
       inverse="true"
       flatten="false"
       hide_clip="false"
       message="Use fill-rule evenodd on &lt;b&gt;fill and stroke&lt;/b&gt; dialog if no flatten result after convert clip to paths." /><inkscape:perspective
       sodipodi:type="inkscape:persp3d"
       inkscape:vp_x="0 : 24 : 1"
       inkscape:vp_y="0 : 1000 : 0"
       inkscape:vp_z="24 : 24 : 1"
       inkscape:persp3d-origin="12 : 20 : 1"
       id="perspective461" /><mask
       maskUnits="userSpaceOnUse"
       id="mask605"><rect
         style="fill:#241c1c"
         id="rect607"
         width="7.8265395"
         height="12.863833"
         x="5.8074589"
         y="4.0381613" /></mask><mask
       maskUnits="userSpaceOnUse"
       id="mask3350"><rect
         style="fill:none;fill-opacity:1;stroke:#000000;stroke-width:0.2;stroke-dasharray:none;stroke-opacity:1"
         id="rect3352"
         width="3.7259324"
         height="10.220295"
         x="13.654814"
         y="13.280139"
         rx="0.5"
         ry="0.5" /></mask><mask
       maskUnits="userSpaceOnUse"
       id="mask3384"><rect
         style="fill:none;fill-opacity:1;stroke:#000000;stroke-width:0.2;stroke-dasharray:none;stroke-opacity:1"
         id="rect3386"
         width="3.8716393"
         height="10.324371"
         x="13.196877"
         y="13.051171"
         rx="2.7755576e-17"
         ry="2.7755576e-17" /></mask><mask
       maskUnits="userSpaceOnUse"
       id="mask4242"><rect
         style="fill:#241c1c;fill-opacity:1;stroke:#cb0d0d;stroke-width:0;stroke-dasharray:none;stroke-opacity:1"
         id="rect4244"
         width="3.7259324"
         height="10.220295"
         x="12.718126"
         y="13.196877"
         rx="2.7755576e-17"
         ry="2.7755576e-17" /></mask><clipPath
       clipPathUnits="userSpaceOnUse"
       id="clipPath4322"><rect
         style="fill:#241c1c;fill-opacity:1;stroke:#a0a0a0;stroke-width:0;stroke-dasharray:none;stroke-opacity:1"
         id="rect4324"
         width="3.3096271"
         height="9.8248053"
         x="12.843019"
         y="13.092801"
         rx="2.7755576e-17"
         ry="2.7755576e-17" /></clipPath><clipPath
       clipPathUnits="userSpaceOnUse"
       id="clipPath4322-9"><rect
         style="fill:#241c1c;fill-opacity:1;stroke:#a0a0a0;stroke-width:0;stroke-dasharray:none;stroke-opacity:1"
         id="rect4324-4"
         width="3.3096271"
         height="9.8248053"
         x="12.843019"
         y="13.092801"
         rx="2.7755576e-17"
         ry="2.7755576e-17" /></clipPath><clipPath
       clipPathUnits="userSpaceOnUse"
       id="clipPath14576"><rect
         style="fill:none;fill-opacity:1;stroke:#000000;stroke-width:0.270765;stroke-dasharray:none;stroke-opacity:1"
         id="rect14578"
         width="7.8182201"
         height="4.5040832"
         x="6.4672995"
         y="-17.520039"
         transform="scale(1,-1)" /></clipPath><clipPath
       clipPathUnits="userSpaceOnUse"
       id="clipPath16354"><rect
         style="display:none;fill:#cf3b0a;fill-opacity:1;stroke:#000000;stroke-width:0.2;stroke-dasharray:none;stroke-opacity:1"
         id="rect16356"
         width="1.18647"
         height="1.0615785"
         x="10.449263"
         y="11.927147"
         rx="2.7755576e-17"
         ry="2.7755576e-17"
         d="m 10.449263,11.927147 h 1.18647 c 0,0 0,0 0,0 v 1.061578 c 0,0 0,0 0,0 h -1.18647 c 0,0 0,0 0,0 v -1.061578 c 0,0 0,0 0,0 z" /><path
         id="lpe_path-effect16364"
         style="fill:#cf3b0a;fill-opacity:1;stroke:#000000;stroke-width:0.2;stroke-dasharray:none;stroke-opacity:1"
         class="powerclip"
         d="M 1.5192539,-0.97857788 H 20.524112 V 17.493807 H 1.5192539 Z M 10.449263,11.927147 c 0,0 0,0 0,0 v 1.061578 c 0,0 0,0 0,0 h 1.18647 c 0,0 0,0 0,0 v -1.061578 c 0,0 0,0 0,0 z" /></clipPath><clipPath
       clipPathUnits="userSpaceOnUse"
       id="clipPath18960"><rect
         style="display:none;fill:#241c1c;fill-opacity:1;stroke:none;stroke-width:0.193729;stroke-dasharray:0.193729, 0.193729;stroke-dashoffset:0;stroke-opacity:1"
         id="rect18962"
         width="1.5819602"
         height="1.2072853"
         x="10.324371"
         y="13.717259"
         d="m 10.324371,13.717259 h 1.581961 v 1.207286 h -1.581961 z" /><path
         id="lpe_path-effect18964"
         style="fill:#241c1c;fill-opacity:1;stroke:none;stroke-width:0.193729;stroke-dasharray:0.193729, 0.193729;stroke-dashoffset:0;stroke-opacity:1"
         class="powerclip"
         d="M 1.3742828,9.1792655 H 20.648997 V 28.453819 H 1.3742828 Z m 9.0541652,4.4755485 v 1.165655 h 1.290546 v -1.165655 z" /></clipPath><clipPath
       clipPathUnits="userSpaceOnUse"
       id="clipPath18970"><rect
         style="display:none;fill:#241c1c;fill-opacity:1;stroke:none;stroke-width:0.2;stroke-dasharray:0.2, 0.2;stroke-dashoffset:0;stroke-opacity:1"
         id="rect18972"
         width="0.81179529"
         height="0.89505637"
         x="9.9288816"
         y="13.821336"
         d="m 9.9288816,13.821336 h 0.8117954 v 0.895056 H 9.9288816 Z" /><path
         id="lpe_path-effect18974"
         style="fill:#241c1c;fill-opacity:1;stroke:none;stroke-width:0.2;stroke-dasharray:0.2, 0.2;stroke-dashoffset:0;stroke-opacity:1"
         class="powerclip"
         d="M 1.3742828,9.1792655 H 20.648997 V 28.453819 H 1.3742828 Z m 9.0541652,4.4755485 v 1.165655 h 1.290546 v -1.165655 z" /></clipPath><clipPath
       clipPathUnits="userSpaceOnUse"
       id="clipPath18980"><rect
         style="display:none;fill:#241c1c;fill-opacity:1;stroke:none;stroke-width:0.153685;stroke-dasharray:0.153685, 0.153685;stroke-dashoffset:0;stroke-opacity:1"
         id="rect18982"
         width="1.2905463"
         height="1.1656548"
         x="10.428448"
         y="13.654814"
         d="m 10.428448,13.654814 h 1.290546 v 1.165655 h -1.290546 z" /><path
         id="lpe_path-effect18984"
         style="fill:#241c1c;fill-opacity:1;stroke:none;stroke-width:0.153685;stroke-dasharray:0.153685, 0.153685;stroke-dashoffset:0;stroke-opacity:1"
         class="powerclip"
         d="M 1.3742828,9.1792655 H 20.648997 V 28.453819 H 1.3742828 Z m 9.0541652,4.4755485 v 1.165655 h 1.290546 v -1.165655 z" /></clipPath><mask
       maskUnits="userSpaceOnUse"
       id="mask-powermask-path-effect24761"><path
         id="mask-powermask-path-effect24761_box"
         style="fill:#ffffff;fill-opacity:1"
         d="M 5.3742828,13.179266 H 16.648997 V 24.453819 H 5.3742828 Z" /><rect
         style="fill:#241c1c;fill-opacity:1;stroke:#000000;stroke-width:0.457669;stroke-dasharray:none;stroke-dashoffset:0;stroke-opacity:1"
         id="rect24747"
         width="1.0328764"
         height="9.8585491"
         x="10.494837"
         y="14.116693"
         d="m 10.494837,14.116693 h 1.032876 v 9.858549 h -1.032876 z" /></mask><filter
       id="mask-powermask-path-effect24761_inverse"
       inkscape:label="filtermask-powermask-path-effect24761"
       style="color-interpolation-filters:sRGB"
       height="100"
       width="100"
       x="-50"
       y="-50"><feColorMatrix
         id="mask-powermask-path-effect24761_primitive1"
         values="1"
         type="saturate"
         result="fbSourceGraphic" /><feColorMatrix
         id="mask-powermask-path-effect24761_primitive2"
         values="-1 0 0 0 1 0 -1 0 0 1 0 0 -1 0 1 0 0 0 1 0 "
         in="fbSourceGraphic" /></filter><marker
       style="overflow:visible"
       id="TriangleStart-0"
       refX="0"
       refY="0"
       orient="auto-start-reverse"
       inkscape:stockid="TriangleStart"
       markerWidth="2.729075"
       markerHeight="3.155"
       viewBox="0 0 5.3244081 6.1553851"
       inkscape:isstock="true"
       inkscape:collect="always"
       preserveAspectRatio="xMidYMid"><path
         transform="scale(0.5)"
         style="fill:context-stroke;fill-rule:evenodd;stroke:context-stroke;stroke-width:1pt"
         d="M 5.77,0 -2.88,5 V -5 Z"
         id="path135-3" /></marker></defs><sodipodi:namedview
     id="namedview21"
     pagecolor="#ffffff"
     bordercolor="#000000"
     borderopacity="0.25"
     inkscape:showpageshadow="2"
     inkscape:pageopacity="0.0"
     inkscape:pagecheckerboard="0"
     inkscape:deskcolor="#d1d1d1"
     showgrid="false"
     inkscape:lockguides="true"
     showguides="true"
     inkscape:zoom="33.970588"
     inkscape:cx="12.054546"
     inkscape:cy="13.202597"
     inkscape:window-width="1694"
     inkscape:window-height="1356"
     inkscape:window-x="1706"
     inkscape:window-y="5"
     inkscape:window-maximized="0"
     inkscape:current-layer="svg19"><inkscape:grid
       type="xygrid"
       id="grid4689"
       spacingx="0.5"
       spacingy="0.5"
       originx="0"
       originy="0" /></sodipodi:namedview><path
     style="fill:none;fill-opacity:1;stroke:#000000;stroke-width:0.2;stroke-dasharray:0.2, 0.2;stroke-dashoffset:0;stroke-opacity:1"
     id="path18801"
     clip-path="url(#clipPath18980)"
     inkscape:path-effect="#path-effect18964;#path-effect18974;#path-effect18984;#path-effect24761"
     sodipodi:type="arc"
     sodipodi:cx="11.011277"
     sodipodi:cy="18.817001"
     sodipodi:rx="4.5377278"
     sodipodi:ry="4.5377278"
     d="m 15.549005,18.817001 a 4.5377278,4.5377278 0 0 1 -4.537728,4.537728 4.5377278,4.5377278 0 0 1 -4.5377276,-4.537728 4.5377278,4.5377278 0 0 1 4.5377276,-4.537727 4.5377278,4.5377278 0 0 1 4.537728,4.537727 z"
     mask="url(#mask-powermask-path-effect24761)"
     transform="translate(0.99913517)" /><path
     style="fill:none;fill-opacity:1;stroke:#000000;stroke-width:0.189488;stroke-dasharray:none;stroke-opacity:1"
     id="rect630"
     width="8.8153696"
     height="8.282897"
     x="6.6139979"
     y="4.1161661"
     rx="0.47371927"
     ry="0.47371927"
     clip-path="url(#clipPath16354)"
     inkscape:path-effect="#path-effect16364"
     d="m 7.0877172,4.1161661 h 7.8679308 c 0.262441,0 0.47372,0.2112788 0.47372,0.4737193 v 7.3354586 c 0,0.26244 -0.211279,0.473719 -0.47372,0.473719 H 7.0877172 c -0.2624405,0 -0.4737193,-0.211279 -0.4737193,-0.473719 V 4.5898854 c 0,-0.2624405 0.2112788,-0.4737193 0.4737193,-0.4737193 z"
     sodipodi:type="rect"
     transform="translate(0.99913517)" /><rect
     style="fill:none;fill-opacity:1;stroke:#000000;stroke-width:0.2;stroke-dasharray:none;stroke-opacity:1"
     id="rect630-8"
     width="9.3044233"
     height="8.7424107"
     x="5.7554207"
     y="13.613183"
     rx="0.5"
     ry="0.5"
     clip-path="url(#clipPath4322)"
     transform="matrix(0.95107548,0,0,0.95107548,-9.4254318,-8.8306345)" /><rect
     style="fill:none;fill-opacity:1;stroke:#000000;stroke-width:0.2;stroke-dasharray:none;stroke-opacity:1"
     id="rect630-8-1"
     width="9.3044233"
     height="8.7424107"
     x="5.7554207"
     y="13.613183"
     rx="0.5"
     ry="0.5"
     clip-path="url(#clipPath4322-9)"
     transform="matrix(-0.95107548,0,0,0.95107548,33.423973,-8.8200354)" /><path
     d="m 5.4302362,8.2480482 c 0,-0.1741145 0.141532,-0.3156462 0.315647,-0.3156462 h 0.407285 V 7.7389414 h -0.407285 a 0.50910679,0.50910679 0 0 0 -0.509107,0.5091068 0.50910679,0.50910679 0 0 0 0.509107,0.5091068 h 0.407285 V 8.5636944 h -0.407285 c -0.174115,0 -0.315647,-0.1415317 -0.315647,-0.3156462 m 0.417468,0.1018213 h 0.814571 V 8.1462268 H 5.8477042 V 8.3498695 M 6.7640962,7.7389414 H 6.3568112 V 7.932402 h 0.407285 c 0.174115,0 0.315646,0.1415317 0.315646,0.3156462 0,0.1741145 -0.141531,0.3156462 -0.315646,0.3156462 H 6.3568112 V 8.757155 h 0.407285 A 0.50910679,0.50910679 0 0 0 7.2732032,8.2480482 0.50910679,0.50910679 0 0 0 6.7640962,7.7389414 Z"
     id="path7633"
     style="fill:#aaaaaa;fill-opacity:1;stroke-width:0.101821" /><path
     d="m 16.930677,8.2428444 c 0,-0.1741145 0.141532,-0.3156462 0.315646,-0.3156462 h 0.407286 V 7.7337376 h -0.407286 a 0.50910679,0.50910679 0 0 0 -0.509107,0.5091068 0.50910679,0.50910679 0 0 0 0.509107,0.5091068 h 0.407286 V 8.5584906 h -0.407286 c -0.174114,0 -0.315646,-0.1415317 -0.315646,-0.3156462 m 0.417467,0.1018213 h 0.814571 V 8.141023 h -0.814571 v 0.2036427 m 0.916393,-0.6109281 h -0.407286 v 0.1934606 h 0.407286 c 0.174114,0 0.315646,0.1415317 0.315646,0.3156462 0,0.1741145 -0.141532,0.3156462 -0.315646,0.3156462 h -0.407286 v 0.1934606 h 0.407286 A 0.50910679,0.50910679 0 0 0 18.773644,8.2428444 0.50910679,0.50910679 0 0 0 18.264537,7.7337376 Z"
     id="path7633-6"
     style="fill:#aaaaaa;fill-opacity:1;stroke-width:0.101821" /><text
     xml:space="preserve"
     style="fill:#241c1c;fill-opacity:1;stroke:#a0a0a0;stroke-width:0;stroke-dasharray:none;stroke-opacity:1"
     x="8.2220297"
     y="15.611448"
     id="text11763"><tspan
       sodipodi:role="line"
       id="tspan11761"
       x="8.2220297"
       y="15.611448" /></text><text
     xml:space="preserve"
     style="font-style:normal;font-variant:normal;font-weight:bold;font-stretch:normal;font-size:0.666668px;font-family:Verdana;-inkscape-font-specification:'Verdana Bold';fill:#241c1c;fill-opacity:1;stroke:#a0a0a0;stroke-width:0;stroke-dasharray:none;stroke-opacity:1"
     x="8.3677425"
     y="5.5576744"
     id="text11767"><tspan
       sodipodi:role="line"
       id="tspan11765"
       x="8.3677425"
       y="5.5576744">NFT Smart Contract</tspan></text><text
     xml:space="preserve"
     style="font-style:normal;font-variant:normal;font-weight:bold;font-stretch:normal;font-size:0.666668px;font-family:Verdana;-inkscape-font-specification:'Verdana Bold';fill:#241c1c;fill-opacity:1;stroke:#a0a0a0;stroke-width:0;stroke-dasharray:none;stroke-opacity:1"
     x="9.9100571"
     y="16.518908"
     id="text11767-7"><tspan
       sodipodi:role="line"
       id="tspan11765-2"
       x="9.9100571"
       y="16.518908">IPFS/Cloud</tspan></text><text
     xml:space="preserve"
     style="font-style:normal;font-variant:normal;font-weight:bold;font-stretch:normal;font-size:0.666668px;font-family:Verdana;-inkscape-font-specification:'Verdana Bold';white-space:pre;inline-size:9.02059;display:inline;fill:#241c1c;fill-opacity:1;stroke:#a0a0a0;stroke-width:0;stroke-dasharray:none;stroke-opacity:1"
     x="10.748884"
     y="32.193581"
     id="text11767-7-4"
     transform="translate(-3.1639188,-5.8699078)"><tspan
       x="10.748884"
       y="32.193581"
       id="tspan2570">Metaverse/Social Media</tspan></text><rect
     style="fill:none;fill-opacity:1;stroke:#aaaaaa;stroke-width:0.2;stroke-dasharray:none;stroke-opacity:1"
     id="rect14572"
     width="5.1205549"
     height="4.9540329"
     x="7.7224627"
     y="13.75889"
     rx="0.47371927"
     ry="0.47371927"
     clip-path="url(#clipPath14576)"
     transform="translate(1.7276692,-7.2853438)" /><rect
     style="fill:#aaaaaa;fill-opacity:1;stroke:none;stroke-width:0.199317;stroke-dasharray:none;stroke-opacity:1"
     id="rect14580"
     width="4.6001735"
     height="0.60364264"
     x="9.6999187"
     y="6.7649612"
     rx="0.40000001"
     ry="0.40000001" /><rect
     style="fill:#aaaaaa;fill-opacity:1;stroke:none;stroke-width:0.199317;stroke-dasharray:none;stroke-opacity:1"
     id="rect14580-5"
     width="4.6001735"
     height="0.60364264"
     x="9.7103281"
     y="7.5663486"
     rx="0.40000001"
     ry="0.40000001" /><rect
     style="fill:#800080;fill-opacity:1;stroke:none;stroke-width:0.199317;stroke-dasharray:none;stroke-opacity:1"
     id="rect14580-5-1"
     width="4.6001735"
     height="0.60364264"
     x="9.7103281"
     y="8.3573284"
     rx="0.40000001"
     ry="0.40000001" /><text
     xml:space="preserve"
     style="font-style:normal;font-variant:normal;font-weight:bold;font-stretch:normal;font-size:1.06667px;font-family:Verdana;-inkscape-font-specification:'Verdana Bold';fill:#241c1c;fill-opacity:1;stroke:none;stroke-width:0.2;stroke-dasharray:none;stroke-opacity:1"
     x="5.6739521"
     y="2.4562013"
     id="text14730"><tspan
       sodipodi:role="line"
       id="tspan14728"
       x="5.6739521"
       y="2.4562013"
       style="font-style:normal;font-variant:normal;font-weight:bold;font-stretch:normal;font-size:1.06667px;font-family:Verdana;-inkscape-font-specification:'Verdana Bold'">Ethereum Blockchain</tspan></text><path
     d="m 13.318598,17.227225 h -2.699624 c -0.212113,0 -0.38566,0.173548 -0.38566,0.385661 v 2.699625 c 0,0.212113 0.173547,0.38566 0.38566,0.38566 h 2.699624 c 0.212114,0 0.385662,-0.173547 0.385662,-0.38566 v -2.699625 c 0,-0.212113 -0.173548,-0.385661 -0.385662,-0.385661 m -1.928302,2.024718 c 0,0.212114 -0.173548,0.289246 -0.385661,0.289246 -0.212113,0 -0.385661,-0.07714 -0.385661,-0.289246 v -0.289245 h 0.289246 v 0.289245 h 0.19283 v -0.867736 h 0.289246 v 0.867736 m 0.964152,-0.38566 c 0,0.154264 -0.134982,0.289246 -0.289246,0.289246 h -0.19283 v 0.38566 h -0.289246 v -1.156982 h 0.482076 c 0.154264,0 0.289246,0.134981 0.289246,0.289246 v 0.19283 m 0.96415,-0.19283 h -0.482076 v 0.57849 h 0.192832 v -0.289245 h 0.289244 v 0.327812 c 0,0.134981 -0.09641,0.250679 -0.250679,0.250679 H 12.81724 c -0.154265,0 -0.250679,-0.134981 -0.250679,-0.250679 v -0.63634 c -0.01928,-0.134982 0.07714,-0.269963 0.231396,-0.269963 h 0.25068 c 0.154264,0 0.250678,0.134981 0.250678,0.25068 v 0.03857 m -1.426943,0 h 0.19283 v 0.19283 h -0.19283 z"
     id="path20085"
     style="fill:#800080;fill-opacity:1;stroke-width:0.19283" /><path
     style="fill:#241c1c;fill-opacity:1;stroke:#800080;stroke-width:0.2;stroke-dasharray:none;stroke-dashoffset:0;stroke-opacity:1;marker-end:url(#TriangleStart)"
     d="M 11.989602,9.2211621 V 14.94536"
     id="path20511" /><path
     style="fill:#241c1c;fill-opacity:1;stroke:#800080;stroke-width:0.162247;stroke-dasharray:none;stroke-dashoffset:0;stroke-opacity:1;marker-end:url(#TriangleStart-0)"
     d="m 11.947971,21.018333 v 3.76713"
     id="path20511-7" /><path
     d="m 13.600422,27.67183 c 0.296075,0 0.533469,0.237394 0.533469,0.53347 v 0.800204 c 0,0.296077 -0.237394,0.533471 -0.533469,0.533471 h -0.594819 l -0.330752,-0.328084 c -0.200051,-0.205387 -0.469453,-0.31208 -0.754859,-0.31208 -0.285407,0 -0.552142,0.106693 -0.754861,0.31208 l -0.328086,0.328084 h -0.437446 c -0.296076,0 -0.533471,-0.237394 -0.533471,-0.533471 V 28.2053 c 0,-0.296076 0.237395,-0.53347 0.533471,-0.53347 h 3.200823 m 0,-0.53347 H 10.399599 A 1.0669399,1.0669399 0 0 0 9.3326544,28.2053 v 0 H 9.0659176 v 0.800204 h 0.2667368 v 0 a 1.0669399,1.0669399 0 0 0 1.0669446,1.066941 h 0.66684 c 0.01067,-0.016 0.02401,-0.03201 0.477456,-0.485457 0.104026,-0.104028 0.240062,-0.154707 0.376097,-0.154707 0.138702,0 0.274737,0.05068 0.378763,0.154707 l 0.477455,0.485457 h 0.824212 a 1.0669399,1.0669399 0 0 0 1.06694,-1.066941 v 0 h 0.266734 V 28.2053 h -0.266734 v 0 a 1.0669399,1.0669399 0 0 0 -1.06694,-1.06694 z"
     id="path23435"
     style="fill:#800080;fill-opacity:1;stroke-width:0.266735" /><path
     d="m 9.0861956,30.094192 c -0.06515,0.02961 -0.1353694,0.04907 -0.2081314,0.05838 0.07445,-0.04484 0.131986,-0.11591 0.1590602,-0.201362 -0.07022,0.0423 -0.1480612,0.07192 -0.2301292,0.08884 -0.06684,-0.07276 -0.160751,-0.115064 -0.267354,-0.115064 -0.198824,0 -0.361268,0.162443 -0.361268,0.36296 0,0.02877 0.0034,0.05669 0.0093,0.08291 -0.301197,-0.01523 -0.569398,-0.159906 -0.747917,-0.379036 -0.0313,0.0533 -0.04907,0.115911 -0.04907,0.181903 0,0.126063 0.06346,0.237743 0.161598,0.301197 -0.06007,0 -0.11591,-0.01692 -0.164982,-0.0423 0,0 0,0 0,0.0026 0,0.175981 0.125217,0.323195 0.291045,0.356192 -0.03046,0.0085 -0.06261,0.01269 -0.0956,0.01269 -0.02284,0 -0.04569,-0.0026 -0.06769,-0.0068 0.04569,0.142984 0.178518,0.249588 0.338423,0.252126 -0.123524,0.09814 -0.280045,0.155675 -0.450949,0.155675 -0.02877,0 -0.05753,-0.0017 -0.0863,-0.0051 0.160751,0.103219 0.35196,0.16329 0.556707,0.16329 0.666695,0 1.033039,-0.553323 1.033039,-1.03304 0,-0.01608 0,-0.0313 -8.51e-4,-0.04738 0.07107,-0.05076 0.1319862,-0.115064 0.1810574,-0.188671 z"
     id="path25268"
     style="fill:#aaaaaa;fill-opacity:1;stroke-width:0.0846062" /><path
     d="m 15.531419,29.777972 h 0.68045 c 0.25922,0 0.469836,0.210615 0.469836,0.469835 v 0.68045 a 0.46983513,0.46983513 0 0 1 -0.469836,0.469836 h -0.68045 c -0.25922,0 -0.469835,-0.210616 -0.469835,-0.469836 v -0.68045 a 0.46983513,0.46983513 0 0 1 0.469835,-0.469835 m -0.01621,0.162012 a 0.2916218,0.2916218 0 0 0 -0.291622,0.291622 v 0.712853 c 0,0.161202 0.13042,0.291622 0.291622,0.291622 h 0.712854 a 0.2916218,0.2916218 0 0 0 0.291627,-0.291622 v -0.712853 c 0,-0.161202 -0.13042,-0.291622 -0.291622,-0.291622 h -0.712854 m 0.781708,0.121509 a 0.10125757,0.10125757 0 0 1 0.101258,0.101257 0.10125757,0.10125757 0 0 1 -0.101258,0.101258 0.10125757,0.10125757 0 0 1 -0.101257,-0.101258 0.10125757,0.10125757 0 0 1 0.101257,-0.101257 m -0.425282,0.12151 a 0.40503028,0.40503028 0 0 1 0.405031,0.405029 0.40503028,0.40503028 0 0 1 -0.405031,0.405031 0.40503028,0.40503028 0 0 1 -0.405029,-0.405031 0.40503028,0.40503028 0 0 1 0.405029,-0.405029 m 0,0.162011 a 0.24301817,0.24301817 0 0 0 -0.243017,0.243018 0.24301817,0.24301817 0 0 0 0.243017,0.243019 0.24301817,0.24301817 0 0 0 0.243019,-0.243019 0.24301817,0.24301817 0 0 0 -0.243019,-0.243018 z"
     id="path26063"
     style="fill:#aaaaaa;fill-opacity:1;stroke-width:0.0810061" /></svg>
